<svg xmlns="http://www.w3.org/2000/svg" viewBox="0 0 320 290"><rect width="320" height="290" rx="12" fill="#e6edf0"/><polygon points="103.04,211.34 103.27,212.19 103.18,211.86" fill="#b1271b"/><polygon points="103.27,212.19 103.50,212.85 103.18,211.86" fill="#af261b"/><polygon points="103.50,212.85 104.03,213.40 104.20,213.48" fill="#9d2117"/><polygon points="104.03,213.40 104.65,213.91 104.20,213.48" fill="#9a2116"/><polygon points="103.18,211.86 103.50,212.85 103.90,212.47" fill="#ae261b"/><polygon points="103.50,212.85 104.20,213.48 103.90,212.47" fill="#ad261a"/><polygon points="104.20,213.48 104.65,213.91 169.33,246.37" fill="#982016"/><polygon points="103.90,212.47 104.20,213.48 169.12,245.30" fill="#aa251a"/><polygon points="103.04,211.34 103.18,211.86 94.34,66.30" fill="#b7291d"/><polygon points="103.18,211.86 103.90,212.47 95.15,66.66" fill="#b6281c"/><polygon points="104.65,213.91 169.73,246.79 169.33,246.37" fill="#982016"/><polygon points="189.79,233.92 190.38,233.12 190.69,232.06" fill="#982016"/><polygon points="104.20,213.48 169.33,246.37 169.12,245.30" fill="#aa251a"/><polygon points="190.10,232.84 189.79,233.92 190.69,232.06" fill="#982016"/><polygon points="173.07,246.60 189.28,234.39 189.79,233.92" fill="#982016"/><polygon points="173.58,246.14 189.79,233.92 190.10,232.84" fill="#982016"/><polygon points="94.20,66.00 103.04,211.34 94.34,66.30" fill="#b7291d"/><polygon points="94.34,66.30 103.18,211.86 95.15,66.66" fill="#b6281c"/><polygon points="173.58,246.14 173.07,246.60 189.79,233.92" fill="#982016"/><polygon points="173.87,245.04 173.58,246.14 190.10,232.84" fill="#982016"/><polygon points="172.27,246.97 173.07,246.60 173.58,246.14" fill="#982016"/><polygon points="171.43,247.16 172.27,246.97 171.52,246.99" fill="#982016"/><polygon points="170.69,247.06 171.43,247.16 171.52,246.99" fill="#982016"/><polygon points="169.73,246.79 170.69,247.06 170.57,246.68" fill="#982016"/><polygon points="172.51,246.57 172.27,246.97 173.58,246.14" fill="#982016"/><polygon points="169.33,246.37 169.73,246.79 170.57,246.68" fill="#982016"/><polygon points="171.52,246.99 172.27,246.97 172.51,246.57" fill="#982016"/><polygon points="170.69,247.06 171.52,246.99 171.57,246.58" fill="#982016"/><polygon points="172.51,246.57 173.58,246.14 173.87,245.04" fill="#982016"/><polygon points="170.57,246.68 170.69,247.06 171.57,246.58" fill="#982016"/><polygon points="171.57,246.58 171.52,246.99 172.51,246.57" fill="#982016"/><polygon points="169.33,246.37 170.57,246.68 170.52,245.73" fill="#a82419"/><polygon points="172.65,245.61 172.51,246.57 173.87,245.04" fill="#982016"/><polygon points="171.57,246.58 172.51,246.57 172.65,245.61" fill="#982016"/><polygon points="169.12,245.30 169.33,246.37 170.52,245.73" fill="#a72419"/><polygon points="170.57,246.68 171.57,246.58 171.60,245.78" fill="#a12218"/><polygon points="170.52,245.73 170.57,246.68 171.60,245.78" fill="#9d2117"/><polygon points="171.60,245.78 171.57,246.58 172.65,245.61" fill="#982016"/><polygon points="116.14,57.01 96.46,62.60 117.20,56.91" fill="#c02b1e"/><polygon points="190.10,232.84 190.69,232.06 195.30,78.20" fill="#982016"/><polygon points="103.90,212.47 169.12,245.30 170.29,86.14" fill="#b4281c"/><polygon points="113.31,140.72 115.72,146.74 135.56,137.19" fill="#b4281c"/><polygon points="115.72,146.74 118.86,152.40 135.56,137.19" fill="#b4281c"/><polygon points="111.70,134.55 113.31,140.72 135.56,137.19" fill="#b4281c"/><polygon points="118.86,152.40 122.62,157.52 135.56,137.19" fill="#b4281c"/><polygon points="110.96,128.42 111.70,134.55 135.56,137.19" fill="#b4281c"/><polygon points="122.62,157.52 126.88,161.93 135.56,137.19" fill="#b4281c"/><polygon points="96.46,62.60 97.51,62.51 117.20,56.91" fill="#c02b1e"/><polygon points="111.12,122.55 110.96,128.42 135.56,137.19" fill="#b4281c"/><polygon points="126.88,161.93 131.51,165.46 135.56,137.19" fill="#b4281c"/><polygon points="95.15,66.66 103.90,212.47 170.29,86.14" fill="#b4281c"/><polygon points="112.20,117.14 111.12,122.55 135.56,137.19" fill="#b4281c"/><polygon points="173.87,245.04 190.10,232.84 194.62,78.67" fill="#982016"/><polygon points="131.51,165.46 136.34,167.99 135.56,137.19" fill="#b4281c"/><polygon points="114.18,112.40 112.20,117.14 135.56,137.19" fill="#b4281c"/><polygon points="95.12,63.48 94.73,64.02 95.52,63.18" fill="#c62d20"/><polygon points="211.08,256.95 211.35,255.45 214.40,197.78" fill="#982016"/><polygon points="94.33,64.86 94.20,66.00 94.55,64.88" fill="#bd2a1e"/><polygon points="136.34,167.99 141.23,169.39 135.56,137.19" fill="#b4281c"/><polygon points="96.46,62.60 95.52,63.18 97.51,62.51" fill="#c42c1f"/><polygon points="94.73,64.02 94.33,64.86 95.06,63.93" fill="#c32c1f"/><polygon points="94.20,66.00 94.34,66.30 94.55,64.88" fill="#be2a1e"/><polygon points="186.72,253.82 186.81,255.33 188.34,197.68" fill="#b5281c"/><polygon points="94.73,64.02 95.06,63.93 95.52,63.18" fill="#c62d20"/><polygon points="94.33,64.86 94.55,64.88 95.06,63.93" fill="#c52c1f"/><polygon points="118.27,56.96 117.20,56.91 192.68,74.31" fill="#b8291d"/><polygon points="95.52,63.18 96.39,63.19 97.51,62.51" fill="#c42c1f"/><polygon points="95.52,63.18 95.06,63.93 96.39,63.19" fill="#c72d20"/><polygon points="94.55,64.88 94.34,66.30 95.33,65.05" fill="#bc2a1e"/><polygon points="95.06,63.93 94.55,64.88 95.76,64.03" fill="#c42c1f"/><polygon points="95.06,63.93 95.76,64.03 96.39,63.19" fill="#c72d20"/><polygon points="94.34,66.30 95.15,66.66 95.33,65.05" fill="#bd2a1e"/><polygon points="94.55,64.88 95.33,65.05 95.76,64.03" fill="#c52c1f"/><polygon points="210.33,258.36 211.08,256.95 214.13,199.10" fill="#982016"/><polygon points="186.81,255.33 187.38,256.83 188.95,199.00" fill="#b7291d"/><polygon points="104.47,194.74 160.55,221.26 160.35,98.31" fill="#152933"/><polygon points="117.02,108.52 114.18,112.40 135.56,137.19" fill="#b4281c"/><polygon points="141.23,169.39 145.98,169.60 135.56,137.19" fill="#b4281c"/><polygon points="161.12,162.72 165.10,160.45 154.39,166.30" fill="#982016"/><polygon points="209.14,259.65 210.33,258.36 213.35,200.35" fill="#982016"/><polygon points="187.38,256.83 188.40,258.26 190.04,200.26" fill="#b7291d"/><polygon points="97.81,80.67 104.47,194.74 160.35,98.31" fill="#152933"/><polygon points="207.54,260.75 209.14,259.65 212.09,201.49" fill="#982016"/><polygon points="150.43,168.57 161.12,162.72 154.39,166.30" fill="#982016"/><polygon points="188.40,258.26 189.84,259.56 191.58,201.41" fill="#b7281c"/><polygon points="120.62,105.66 117.02,108.52 135.56,137.19" fill="#b4281c"/><polygon points="141.08,99.11 136.32,99.56 124.88,103.97" fill="#c02b1f"/><polygon points="145.98,169.60 150.43,168.57 135.56,137.19" fill="#b4281c"/><polygon points="205.60,261.61 207.54,260.75 210.40,202.46" fill="#982016"/><polygon points="189.84,259.56 191.65,260.67 193.51,202.39" fill="#b5281c"/><polygon points="117.20,56.91 97.51,62.51 191.68,74.30" fill="#be2a1e"/><polygon points="203.39,262.20 205.60,261.61 208.35,203.22" fill="#982016"/><polygon points="191.65,260.67 193.76,261.55 195.76,203.17" fill="#b2271b"/><polygon points="165.10,160.45 168.43,157.02 157.70,162.85" fill="#982016"/><polygon points="201.00,262.50 203.39,262.20 206.00,203.74" fill="#9e2217"/><polygon points="193.76,261.55 196.09,262.17 198.24,203.71" fill="#ae261b"/><polygon points="198.53,262.49 201.00,262.50 203.47,204.01" fill="#a42318"/><polygon points="196.09,262.17 198.53,262.49 200.84,204.00" fill="#aa251a"/><polygon points="124.88,103.97 120.62,105.66 135.56,137.19" fill="#b4281c"/><polygon points="150.43,168.57 154.39,166.30 135.56,137.19" fill="#b4281c"/><polygon points="172.65,245.61 173.87,245.04 175.85,85.98" fill="#982016"/><polygon points="169.12,245.30 170.52,245.73 171.93,86.40" fill="#b0271b"/><polygon points="154.39,166.30 165.10,160.45 157.70,162.85" fill="#982016"/><polygon points="171.60,245.78 172.65,245.61 174.42,86.32" fill="#9c2117"/><polygon points="170.52,245.73 171.60,245.78 173.20,86.42" fill="#a62419"/><polygon points="146.14,99.95 141.08,99.11 129.64,103.55" fill="#bf2b1e"/><polygon points="129.64,103.55 141.08,99.11 124.88,103.97" fill="#c02b1f"/><polygon points="188.24,196.35 186.72,253.82 188.34,197.68" fill="#b5281c"/><polygon points="129.64,103.55 124.88,103.97 135.56,137.19" fill="#b4281c"/><polygon points="168.43,157.02 170.96,152.55 160.19,158.32" fill="#982016"/><polygon points="154.39,166.30 157.70,162.85 135.56,137.19" fill="#b4281c"/><polygon points="214.13,199.10 211.08,256.95 214.40,197.78" fill="#982016"/><polygon points="188.34,197.68 186.81,255.33 188.95,199.00" fill="#b7291d"/><polygon points="157.70,162.85 168.43,157.02 160.19,158.32" fill="#982016"/><polygon points="213.35,200.35 210.33,258.36 214.13,199.10" fill="#982016"/><polygon points="151.31,102.09 146.14,99.95 134.73,104.46" fill="#bc2a1e"/><polygon points="194.62,78.67 190.10,232.84 195.30,78.20" fill="#982016"/><polygon points="134.73,104.46 129.64,103.55 135.56,137.19" fill="#b4281c"/><polygon points="157.70,162.85 160.19,158.32 135.56,137.19" fill="#b4281c"/><polygon points="188.95,199.00 187.38,256.83 190.04,200.26" fill="#b7291d"/><polygon points="134.73,104.46 146.14,99.95 129.64,103.55" fill="#bf2b1e"/><polygon points="170.96,152.55 172.57,147.18 161.75,152.87" fill="#982016"/><polygon points="212.09,201.49 209.14,259.65 213.35,200.35" fill="#982016"/><polygon points="160.55,221.26 162.76,219.76 162.84,97.31" fill="#102129"/><polygon points="201.71,190.46 199.21,190.45 201.29,197.06" fill="#be2a1e"/><polygon points="204.20,190.72 201.71,190.46 201.29,197.06" fill="#be2a1e"/><polygon points="190.04,200.26 188.40,258.26 191.58,201.41" fill="#b7281c"/><polygon points="199.21,190.45 196.79,190.69 201.29,197.06" fill="#be2a1e"/><polygon points="206.58,191.21 204.20,190.72 201.29,197.06" fill="#be2a1e"/><polygon points="139.93,106.69 134.73,104.46 135.56,137.19" fill="#b4281c"/><polygon points="196.79,190.69 194.53,191.17 201.29,197.06" fill="#be2a1e"/><polygon points="210.40,202.46 207.54,260.75 212.09,201.49" fill="#982016"/><polygon points="208.78,191.93 206.58,191.21 201.29,197.06" fill="#be2a1e"/><polygon points="160.19,158.32 161.75,152.87 135.56,137.19" fill="#b4281c"/><polygon points="156.36,105.47 151.31,102.09 139.93,106.69" fill="#b9291d"/><polygon points="223.05,232.24 223.29,231.27 223.36,228.92" fill="#0d0f10"/><polygon points="194.53,191.17 192.51,191.87 201.29,197.06" fill="#be2a1e"/><polygon points="191.58,201.41 189.84,259.56 193.51,202.39" fill="#b5281c"/><polygon points="160.19,158.32 170.96,152.55 161.75,152.87" fill="#982016"/><polygon points="210.70,192.85 208.78,191.93 201.29,197.06" fill="#be2a1e"/><polygon points="208.35,203.22 205.60,261.61 210.40,202.46" fill="#982016"/><polygon points="223.13,229.91 223.05,232.24 223.36,228.92" fill="#0d0f10"/><polygon points="221.71,232.80 223.05,232.24 223.13,229.91" fill="#0d0f10"/><polygon points="219.04,231.80 220.04,232.61 220.11,230.21" fill="#121416"/><polygon points="192.51,191.87 190.81,192.78 201.29,197.06" fill="#be2a1e"/><polygon points="139.93,106.69 151.31,102.09 134.73,104.46" fill="#bc2a1e"/><polygon points="172.57,147.18 173.16,141.12 162.29,146.70" fill="#982016"/><polygon points="219.11,229.34 219.04,231.80 220.11,230.21" fill="#121416"/><polygon points="212.28,193.94 210.70,192.85 201.29,197.06" fill="#be2a1e"/><polygon points="97.51,62.51 96.39,63.19 172.80,81.41" fill="#c22c1f"/><polygon points="117.20,56.91 191.68,74.30 192.68,74.31" fill="#b8291d"/><polygon points="193.51,202.39 191.65,260.67 195.76,203.17" fill="#b2271b"/><polygon points="220.04,232.61 221.71,232.80 221.78,230.44" fill="#101214"/><polygon points="223.13,229.91 223.36,228.92 223.53,226.57" fill="#0d0f10"/><polygon points="145.03,110.18 139.93,106.69 135.56,137.19" fill="#b4281c"/><polygon points="221.78,230.44 221.71,232.80 223.13,229.91" fill="#0d0f10"/><polygon points="206.00,203.74 203.39,262.20 208.35,203.22" fill="#982016"/><polygon points="220.11,230.21 220.04,232.61 221.78,230.44" fill="#101214"/><polygon points="161.75,152.87 162.29,146.70 135.56,137.19" fill="#b4281c"/><polygon points="96.39,63.19 95.76,64.03 171.69,82.23" fill="#c52c20"/><polygon points="190.81,192.78 189.50,193.85 201.29,197.06" fill="#be2a1e"/><polygon points="195.76,203.17 193.76,261.55 198.24,203.71" fill="#ae261b"/><polygon points="213.46,195.15 212.28,193.94 201.29,197.06" fill="#be2a1e"/><polygon points="223.29,227.57 223.13,229.91 223.53,226.57" fill="#0d0f10"/><polygon points="95.76,64.03 95.33,65.05 171.04,83.18" fill="#c32c1f"/><polygon points="95.33,65.05 95.15,66.66 170.57,84.34" fill="#bb2a1d"/><polygon points="203.47,204.01 201.00,262.50 206.00,203.74" fill="#9e2217"/><polygon points="221.78,230.44 223.13,229.91 223.29,227.57" fill="#0d0f10"/><polygon points="219.11,229.34 220.11,230.21 220.27,227.82" fill="#121416"/><polygon points="100.37,79.85 97.81,80.67 162.84,97.31" fill="#162b36"/><polygon points="198.24,203.71 196.09,262.17 200.84,204.00" fill="#aa251a"/><polygon points="161.07,109.95 156.36,105.47 145.03,110.18" fill="#b3281c"/><polygon points="115.46,27.96 116.55,54.87 169.12,37.93" fill="#b4281c"/><polygon points="219.26,226.93 219.11,229.34 220.27,227.82" fill="#121416"/><polygon points="200.84,204.00 198.53,262.49 203.47,204.01" fill="#a42318"/><polygon points="220.11,230.21 221.78,230.44 221.94,228.09" fill="#101214"/><polygon points="223.29,227.57 223.53,226.57 223.75,224.23" fill="#0d0f10"/><polygon points="221.94,228.09 221.78,230.44 223.29,227.57" fill="#0d0f10"/><polygon points="189.50,193.85 188.63,195.06 201.29,197.06" fill="#be2a1e"/><polygon points="220.27,227.82 220.11,230.21 221.94,228.09" fill="#101214"/><polygon points="117.49,27.50 115.46,27.96 171.09,37.39" fill="#be2a1e"/><polygon points="214.18,196.45 213.46,195.15 201.29,197.06" fill="#be2a1e"/><polygon points="149.81,114.79 145.03,110.18 135.56,137.19" fill="#b4281c"/><polygon points="162.29,146.70 161.75,140.08 135.56,137.19" fill="#b4281c"/><polygon points="173.16,141.12 172.69,134.63 161.75,140.08" fill="#982016"/><polygon points="161.75,152.87 172.57,147.18 162.29,146.70" fill="#982016"/><polygon points="223.51,225.23 223.29,227.57 223.75,224.23" fill="#0d0f10"/><polygon points="221.94,228.09 223.29,227.57 223.51,225.23" fill="#0d0f10"/><polygon points="219.26,226.93 220.27,227.82 220.48,225.45" fill="#121416"/><polygon points="219.48,224.53 219.26,226.93 220.48,225.45" fill="#121416"/><polygon points="220.27,227.82 221.94,228.09 222.16,225.74" fill="#101213"/><polygon points="145.03,110.18 156.36,105.47 139.93,106.69" fill="#b9291d"/><polygon points="223.51,225.23 223.75,224.23 224.01,221.88" fill="#0d0f10"/><polygon points="188.63,195.06 188.24,196.35 201.29,197.06" fill="#be2a1e"/><polygon points="165.22,115.36 161.07,109.95 149.81,114.79" fill="#ad261a"/><polygon points="214.40,197.78 214.18,196.45 201.29,197.06" fill="#be2a1e"/><polygon points="154.04,120.35 149.81,114.79 135.56,137.19" fill="#b4281c"/><polygon points="222.16,225.74 221.94,228.09 223.51,225.23" fill="#0d0f10"/><polygon points="161.75,140.08 160.15,133.28 135.56,137.19" fill="#b4281c"/><polygon points="220.48,225.45 220.27,227.82 222.16,225.74" fill="#101213"/><polygon points="172.69,134.63 171.17,127.98 160.15,133.28" fill="#982016"/><polygon points="157.54,126.60 154.04,120.35 135.56,137.19" fill="#b4281c"/><polygon points="223.77,222.89 223.51,225.23 224.01,221.88" fill="#0d0f10"/><polygon points="160.15,133.28 157.54,126.60 135.56,137.19" fill="#b4281c"/><polygon points="222.16,225.74 223.51,225.23 223.77,222.89" fill="#0d0f10"/><polygon points="219.48,224.53 220.48,225.45 220.73,223.08" fill="#121416"/><polygon points="168.64,121.46 165.22,115.36 154.04,120.35" fill="#a62419"/><polygon points="188.24,196.35 188.34,197.68 201.29,197.06" fill="#be2a1e"/><polygon points="219.73,222.16 219.48,224.53 220.73,223.08" fill="#121416"/><polygon points="214.13,199.10 214.40,197.78 201.29,197.06" fill="#be2a1e"/><polygon points="220.48,225.45 222.16,225.74 222.41,223.39" fill="#101213"/><polygon points="171.17,127.98 168.64,121.46 157.54,126.60" fill="#9d2117"/><polygon points="223.77,222.89 224.01,221.88 224.29,219.52" fill="#0d0f10"/><polygon points="222.41,223.39 222.16,225.74 223.77,222.89" fill="#0d0f10"/><polygon points="220.73,223.08 220.48,225.45 222.41,223.39" fill="#101213"/><polygon points="162.29,146.70 173.16,141.12 161.75,140.08" fill="#982016"/><polygon points="202.01,197.20 204.34,196.94 200.92,197.23" fill="#0d0f10"/><polygon points="224.05,220.52 223.77,222.89 224.29,219.52" fill="#0d0f10"/><polygon points="149.81,114.79 161.07,109.95 145.03,110.18" fill="#b3281c"/><polygon points="222.41,223.39 223.77,222.89 224.05,220.52" fill="#0d0f10"/><polygon points="188.34,197.68 188.95,199.00 201.29,197.06" fill="#be2a1e"/><polygon points="219.73,222.16 220.73,223.08 221.01,220.71" fill="#121416"/><polygon points="213.35,200.35 214.13,199.10 201.29,197.06" fill="#be2a1e"/><polygon points="220.00,219.78 219.73,222.16 221.01,220.71" fill="#121416"/><polygon points="220.73,223.08 222.41,223.39 222.69,221.02" fill="#101213"/><polygon points="224.05,220.52 224.29,219.52 224.58,217.14" fill="#0d0f10"/><polygon points="204.34,196.94 203.21,196.97 200.92,197.23" fill="#0d0f10"/><polygon points="200.92,197.23 203.21,196.97 200.09,196.06" fill="#0f1112"/><polygon points="222.69,221.02 222.41,223.39 224.05,220.52" fill="#0d0f10"/><polygon points="200.00,194.38 202.09,194.13 200.72,193.18" fill="#151719"/><polygon points="221.01,220.71 220.73,223.08 222.69,221.02" fill="#101213"/><polygon points="202.09,194.13 202.77,192.93 200.72,193.18" fill="#151719"/><polygon points="200.09,196.06 202.28,195.81 200.00,194.38" fill="#141618"/><polygon points="188.95,199.00 190.04,200.26 201.29,197.06" fill="#be2a1e"/><polygon points="212.09,201.49 213.35,200.35 201.29,197.06" fill="#be2a1e"/><polygon points="161.75,140.08 172.69,134.63 160.15,133.28" fill="#982016"/><polygon points="224.34,218.14 224.05,220.52 224.58,217.14" fill="#0d0f10"/><polygon points="204.34,196.94 206.56,196.52 203.21,196.97" fill="#0d0f10"/><polygon points="203.21,196.97 202.28,195.81 200.09,196.06" fill="#0f1112"/><polygon points="222.69,221.02 224.05,220.52 224.34,218.14" fill="#0d0f10"/><polygon points="220.00,219.78 221.01,220.71 221.29,218.33" fill="#121416"/><polygon points="154.04,120.35 165.22,115.36 149.81,114.79" fill="#ad261a"/><polygon points="202.28,195.81 202.09,194.13 200.00,194.38" fill="#141618"/><polygon points="220.28,217.40 220.00,219.78 221.29,218.33" fill="#121416"/><polygon points="221.01,220.71 222.69,221.02 222.98,218.64" fill="#101213"/><polygon points="224.34,218.14 224.58,217.14 224.88,214.75" fill="#0d0f10"/><polygon points="175.85,85.98 173.87,245.04 194.62,78.67" fill="#982016"/><polygon points="190.04,200.26 191.58,201.41 201.29,197.06" fill="#be2a1e"/><polygon points="222.98,218.64 222.69,221.02 224.34,218.14" fill="#0d0f10"/><polygon points="133.68,41.88 132.17,42.28 148.06,44.80" fill="#b6bebb"/><polygon points="210.40,202.46 212.09,201.49 201.29,197.06" fill="#be2a1e"/><polygon points="160.15,133.28 171.17,127.98 157.54,126.60" fill="#9d2117"/><polygon points="203.21,196.97 205.40,196.56 202.28,195.81" fill="#0f1112"/><polygon points="206.56,196.52 205.40,196.56 203.21,196.97" fill="#0d0f10"/><polygon points="202.09,194.13 204.19,193.72 202.77,192.93" fill="#151719"/><polygon points="221.29,218.33 221.01,220.71 222.98,218.64" fill="#101213"/><polygon points="157.54,126.60 168.64,121.46 154.04,120.35" fill="#a62419"/><polygon points="132.17,42.28 132.36,49.58 146.56,45.22" fill="#acb4b1"/><polygon points="204.19,193.72 204.85,192.52 202.77,192.93" fill="#151719"/><polygon points="202.28,195.81 204.42,195.40 202.09,194.13" fill="#141618"/><polygon points="224.64,215.74 224.34,218.14 224.88,214.75" fill="#0d0f10"/><polygon points="222.98,218.64 224.34,218.14 224.64,215.74" fill="#0d0f10"/><polygon points="191.58,201.41 193.51,202.39 201.29,197.06" fill="#be2a1e"/><polygon points="220.28,217.40 221.29,218.33 221.58,215.93" fill="#121416"/><polygon points="205.40,196.56 204.42,195.40 202.28,195.81" fill="#0f1112"/><polygon points="206.56,196.52 208.72,196.03 205.40,196.56" fill="#0d0f10"/><polygon points="208.35,203.22 210.40,202.46 201.29,197.06" fill="#be2a1e"/><polygon points="204.42,195.40 204.19,193.72 202.09,194.13" fill="#141618"/><polygon points="220.56,215.01 220.28,217.40 221.58,215.93" fill="#121416"/><polygon points="221.29,218.33 222.98,218.64 223.27,216.23" fill="#101213"/><polygon points="224.64,215.74 224.88,214.75 225.16,212.32" fill="#0d0f10"/><polygon points="223.27,216.23 222.98,218.64 224.64,215.74" fill="#0d0f10"/><polygon points="193.51,202.39 195.76,203.17 201.29,197.06" fill="#be2a1e"/><polygon points="206.00,203.74 208.35,203.22 201.29,197.06" fill="#be2a1e"/><polygon points="221.58,215.93 221.29,218.33 223.27,216.23" fill="#101213"/><polygon points="136.49,37.20 136.92,56.30 142.06,38.28" fill="#acb4b1"/><polygon points="205.40,196.56 207.55,196.07 204.42,195.40" fill="#0f1112"/><polygon points="204.19,193.72 206.30,193.23 204.85,192.52" fill="#151719"/><polygon points="208.72,196.03 207.55,196.07 205.40,196.56" fill="#0d0f10"/><polygon points="136.92,56.30 142.40,57.53 142.06,38.28" fill="#acb4b1"/><polygon points="195.76,203.17 198.24,203.71 201.29,197.06" fill="#be2a1e"/><polygon points="203.47,204.01 206.00,203.74 201.29,197.06" fill="#be2a1e"/><polygon points="206.30,193.23 206.95,192.02 204.85,192.52" fill="#151719"/><polygon points="224.92,213.31 224.64,215.74 225.16,212.32" fill="#0d0f10"/><polygon points="138.01,36.81 136.49,37.20 143.57,37.89" fill="#b6bebb"/><polygon points="204.42,195.40 206.55,194.91 204.19,193.72" fill="#141618"/><polygon points="223.27,216.23 224.64,215.74 224.92,213.31" fill="#0d0f10"/><polygon points="198.24,203.71 200.84,204.00 201.29,197.06" fill="#be2a1e"/><polygon points="200.84,204.00 203.47,204.01 201.29,197.06" fill="#be2a1e"/><polygon points="142.40,57.53 143.88,57.09 143.57,37.89" fill="#929896"/><polygon points="220.56,215.01 221.58,215.93 221.85,213.51" fill="#121416"/><polygon points="220.83,212.60 220.56,215.01 221.85,213.51" fill="#121416"/><polygon points="207.55,196.07 206.55,194.91 204.42,195.40" fill="#0f1112"/><polygon points="208.72,196.03 210.86,195.53 207.55,196.07" fill="#0d0f10"/><polygon points="221.58,215.93 223.27,216.23 223.55,213.80" fill="#101213"/><polygon points="206.55,194.91 206.30,193.23 204.19,193.72" fill="#141618"/><polygon points="224.92,213.31 225.16,212.32 225.41,209.86" fill="#0d0f10"/><polygon points="223.55,213.80 223.27,216.23 224.92,213.31" fill="#0d0f10"/><polygon points="221.85,213.51 221.58,215.93 223.55,213.80" fill="#101213"/><polygon points="132.36,49.58 146.67,52.67 146.56,45.22" fill="#acb4b1"/><polygon points="206.30,193.23 208.45,192.71 206.95,192.02" fill="#151719"/><polygon points="207.55,196.07 209.70,195.56 206.55,194.91" fill="#0f1112"/><polygon points="210.86,195.53 209.70,195.56 207.55,196.07" fill="#0d0f10"/><polygon points="225.18,210.84 224.92,213.31 225.41,209.86" fill="#0d0f10"/><polygon points="223.55,213.80 224.92,213.31 225.18,210.84" fill="#0d0f10"/><polygon points="208.45,192.71 209.10,191.50 206.95,192.02" fill="#151719"/><polygon points="220.83,212.60 221.85,213.51 222.09,211.06" fill="#121416"/><polygon points="206.55,194.91 208.70,194.39 206.30,193.23" fill="#141618"/><polygon points="132.17,42.28 146.56,45.22 148.06,44.80" fill="#b6bebb"/><polygon points="136.49,37.20 142.06,38.28 143.57,37.89" fill="#b6bebb"/><polygon points="221.06,210.17 220.83,212.60 222.09,211.06" fill="#121416"/><polygon points="142.06,38.28 142.40,57.53 143.57,37.89" fill="#929896"/><polygon points="225.18,210.84 225.41,209.86 225.63,207.36" fill="#0d0f10"/><polygon points="221.85,213.51 223.55,213.80 223.80,211.34" fill="#101213"/><polygon points="210.86,195.53 213.00,195.06 209.70,195.56" fill="#0d0f10"/><polygon points="209.70,195.56 208.70,194.39 206.55,194.91" fill="#0f1112"/><polygon points="208.70,194.39 208.45,192.71 206.30,193.23" fill="#141618"/><polygon points="97.51,62.51 172.80,81.41 191.68,74.30" fill="#be2a1e"/><polygon points="223.80,211.34 223.55,213.80 225.18,210.84" fill="#0d0f10"/><polygon points="116.55,54.87 168.95,66.94 169.12,37.93" fill="#b4281c"/><polygon points="222.09,211.06 221.85,213.51 223.80,211.34" fill="#101213"/><polygon points="225.39,208.32 225.18,210.84 225.63,207.36" fill="#0d0f10"/><polygon points="213.00,195.06 211.85,195.09 209.70,195.56" fill="#0d0f10"/><polygon points="209.70,195.56 211.85,195.09 208.70,194.39" fill="#0f1112"/><polygon points="223.80,211.34 225.18,210.84 225.39,208.32" fill="#0d0f10"/><polygon points="208.45,192.71 210.66,192.21 209.10,191.50" fill="#151719"/><polygon points="221.06,210.17 222.09,211.06 222.29,208.58" fill="#121416"/><polygon points="221.26,207.72 221.06,210.17 222.29,208.58" fill="#121416"/><polygon points="210.66,192.21 211.31,191.00 209.10,191.50" fill="#151719"/><polygon points="208.70,194.39 210.88,193.91 208.45,192.71" fill="#141618"/><polygon points="225.39,208.32 225.63,207.36 225.77,204.79" fill="#0d0f10"/><polygon points="222.09,211.06 223.80,211.34 224.01,208.82" fill="#101214"/><polygon points="213.00,195.06 215.16,194.70 211.85,195.09" fill="#0d0f10"/><polygon points="224.01,208.82 223.80,211.34 225.39,208.32" fill="#0d0f10"/><polygon points="211.85,195.09 210.88,193.91 208.70,194.39" fill="#0f1112"/><polygon points="146.67,52.67 148.15,52.23 148.06,44.80" fill="#929896"/><polygon points="210.88,193.91 210.66,192.21 208.45,192.71" fill="#141618"/><polygon points="222.29,208.58 222.09,211.06 224.01,208.82" fill="#101214"/><polygon points="174.42,86.32 172.65,245.61 175.85,85.98" fill="#982016"/><polygon points="170.29,86.14 169.12,245.30 171.93,86.40" fill="#b0271b"/><polygon points="225.53,205.73 225.39,208.32 225.77,204.79" fill="#0d0f10"/><polygon points="224.01,208.82 225.39,208.32 225.53,205.73" fill="#0d0f10"/><polygon points="221.26,207.72 222.29,208.58 222.43,206.05" fill="#121416"/><polygon points="173.20,86.42 171.60,245.78 174.42,86.32" fill="#9c2117"/><polygon points="215.16,194.70 214.04,194.73 211.85,195.09" fill="#0d0f10"/><polygon points="171.93,86.40 170.52,245.73 173.20,86.42" fill="#a62419"/><polygon points="211.85,195.09 214.04,194.73 210.88,193.91" fill="#0f1112"/><polygon points="221.39,205.24 221.26,207.72 222.43,206.05" fill="#121416"/><polygon points="210.66,192.21 212.97,191.81 211.31,191.00" fill="#151719"/><polygon points="225.53,205.73 225.77,204.79 225.80,202.15" fill="#0d0f10"/><polygon points="146.56,45.22 146.67,52.67 148.06,44.80" fill="#929896"/><polygon points="222.29,208.58 224.01,208.82 224.15,206.25" fill="#101214"/><polygon points="212.97,191.81 213.65,190.59 211.31,191.00" fill="#151719"/><polygon points="210.88,193.91 213.13,193.53 210.66,192.21" fill="#141618"/><polygon points="224.15,206.25 224.01,208.82 225.53,205.73" fill="#0d0f10"/><polygon points="215.16,194.70 217.31,194.55 214.04,194.73" fill="#0d0f10"/><polygon points="222.43,206.05 222.29,208.58 224.15,206.25" fill="#101214"/><polygon points="214.04,194.73 213.13,193.53 210.88,193.91" fill="#0f1112"/><polygon points="160.35,98.31 160.55,221.26 162.84,97.31" fill="#102129"/><polygon points="115.46,27.96 169.12,37.93 171.09,37.39" fill="#be2a1e"/><polygon points="213.13,193.53 212.97,191.81 210.66,192.21" fill="#141618"/><polygon points="225.57,203.04 225.53,205.73 225.80,202.15" fill="#0d0f10"/><polygon points="224.15,206.25 225.53,205.73 225.57,203.04" fill="#0d0f10"/><polygon points="221.39,205.24 222.43,206.05 222.45,203.46" fill="#121416"/><polygon points="221.41,202.74 221.39,205.24 222.45,203.46" fill="#121416"/><polygon points="217.31,194.55 216.25,194.58 214.04,194.73" fill="#0d0f10"/><polygon points="225.57,203.04 225.80,202.15 225.64,199.37" fill="#0d0f10"/><polygon points="214.04,194.73 216.25,194.58 213.13,193.53" fill="#0f1112"/><polygon points="222.43,206.05 224.15,206.25 224.18,203.59" fill="#101214"/><polygon points="212.97,191.81 215.46,191.63 213.65,190.59" fill="#151719"/><polygon points="224.18,203.59 224.15,206.25 225.57,203.04" fill="#0d0f10"/><polygon points="213.13,193.53 215.48,193.37 212.97,191.81" fill="#141618"/><polygon points="215.46,191.63 216.19,190.40 213.65,190.59" fill="#151719"/><polygon points="222.45,203.46 222.43,206.05 224.18,203.59" fill="#101214"/><polygon points="216.25,194.58 215.48,193.37 213.13,193.53" fill="#0f1112"/><polygon points="225.40,200.20 225.57,203.04 225.64,199.37" fill="#0d0f10"/><polygon points="221.41,202.74 222.45,203.46 222.29,200.80" fill="#121416"/><polygon points="216.19,190.40 219.22,190.81 217.24,190.39" fill="#121416"/><polygon points="215.48,193.37 215.46,191.63 212.97,191.81" fill="#141618"/><polygon points="224.18,203.59 225.57,203.04 225.40,200.20" fill="#0d0f10"/><polygon points="221.25,200.21 221.41,202.74 222.29,200.80" fill="#121416"/><polygon points="219.22,190.81 220.10,190.77 217.24,190.39" fill="#121416"/><polygon points="225.40,200.20 225.64,199.37 225.09,196.37" fill="#0d0f10"/><polygon points="97.81,80.67 160.35,98.31 162.84,97.31" fill="#162b36"/><polygon points="216.25,194.58 218.39,194.86 215.48,193.37" fill="#0f1112"/><polygon points="222.45,203.46 224.18,203.59 224.01,200.79" fill="#101214"/><polygon points="224.01,200.79 224.18,203.59 225.40,200.20" fill="#0d0f10"/><polygon points="222.29,200.80 222.45,203.46 224.01,200.79" fill="#101214"/><polygon points="215.46,191.63 218.34,192.02 216.19,190.40" fill="#151719"/><polygon points="195.30,78.20 195.31,77.84 195.14,76.64" fill="#982016"/><polygon points="194.16,75.19 193.82,74.91 194.69,75.76" fill="#9e2217"/><polygon points="224.82,197.06 225.40,200.20 225.09,196.37" fill="#0d0f10"/><polygon points="215.48,193.37 218.00,193.71 215.46,191.63" fill="#141618"/><polygon points="220.80,197.75 221.25,200.21 221.78,198.04" fill="#121315"/><polygon points="221.25,200.21 222.29,200.80 221.78,198.04" fill="#121315"/><polygon points="218.34,192.02 219.22,190.81 216.19,190.40" fill="#151719"/><polygon points="218.39,194.86 218.00,193.71 215.48,193.37" fill="#0f1112"/><polygon points="195.02,76.69 195.14,76.64 194.69,75.76" fill="#982016"/><polygon points="224.82,197.06 225.09,196.37 223.41,192.96" fill="#0d0f10"/><polygon points="192.68,74.31 191.68,74.30 193.82,74.91" fill="#b4281c"/><polygon points="195.02,76.69 195.30,78.20 195.14,76.64" fill="#982016"/><polygon points="224.01,200.79 225.40,200.20 224.82,197.06" fill="#0e0f11"/><polygon points="222.96,193.31 223.41,192.96 220.10,190.77" fill="#111314"/><polygon points="193.82,74.91 194.43,75.71 194.69,75.76" fill="#9f2217"/><polygon points="219.22,190.81 222.96,193.31 220.10,190.77" fill="#111314"/><polygon points="218.39,194.86 219.89,195.80 218.00,193.71" fill="#0f1113"/><polygon points="194.43,75.71 195.02,76.69 194.69,75.76" fill="#982016"/><polygon points="218.00,193.71 218.34,192.02 215.46,191.63" fill="#141618"/><polygon points="96.39,63.19 171.69,82.23 172.80,81.41" fill="#c22c1f"/><polygon points="222.29,200.80 224.01,200.79 223.45,197.76" fill="#111314"/><polygon points="219.89,195.80 220.80,197.75 220.46,195.32" fill="#111314"/><polygon points="191.68,74.30 193.03,75.01 193.82,74.91" fill="#b4281c"/><polygon points="222.96,193.31 224.82,197.06 223.41,192.96" fill="#0d0f10"/><polygon points="194.62,78.67 195.30,78.20 195.02,76.69" fill="#982016"/><polygon points="193.82,74.91 193.03,75.01 194.43,75.71" fill="#ab251a"/><polygon points="223.45,197.76 224.01,200.79 224.82,197.06" fill="#0e0f11"/><polygon points="221.78,198.04 222.29,200.80 223.45,197.76" fill="#111314"/><polygon points="220.80,197.75 221.78,198.04 220.46,195.32" fill="#111314"/><polygon points="219.89,195.80 220.46,195.32 218.00,193.71" fill="#0f1113"/><polygon points="194.35,76.96 195.02,76.69 194.43,75.71" fill="#9b2116"/><polygon points="95.76,64.03 171.04,83.18 171.69,82.23" fill="#c52c20"/><polygon points="218.34,192.02 221.73,194.28 219.22,190.81" fill="#141618"/><polygon points="218.00,193.71 220.46,195.32 218.34,192.02" fill="#131517"/><polygon points="223.45,197.76 224.82,197.06 222.96,193.31" fill="#101214"/><polygon points="193.03,75.01 193.80,75.88 194.43,75.71" fill="#ab251a"/><polygon points="95.15,66.66 170.29,86.14 170.57,84.34" fill="#bb2a1d"/><polygon points="194.35,76.96 194.62,78.67 195.02,76.69" fill="#982016"/><polygon points="221.73,194.28 222.96,193.31 219.22,190.81" fill="#141618"/><polygon points="95.33,65.05 170.57,84.34 171.04,83.18" fill="#c32c1f"/><polygon points="193.80,75.88 194.35,76.96 194.43,75.71" fill="#9e2217"/><polygon points="221.78,198.04 223.45,197.76 221.73,194.28" fill="#121415"/><polygon points="220.46,195.32 221.78,198.04 221.73,194.28" fill="#121415"/><polygon points="220.46,195.32 221.73,194.28 218.34,192.02" fill="#131517"/><polygon points="221.73,194.28 223.45,197.76 222.96,193.31" fill="#101214"/><polygon points="168.95,66.94 170.87,66.29 171.09,37.39" fill="#982016"/><polygon points="191.68,74.30 172.80,81.41 193.03,75.01" fill="#ba291d"/><polygon points="193.03,75.01 174.18,82.16 193.80,75.88" fill="#af261b"/><polygon points="175.85,85.98 194.62,78.67 194.35,76.96" fill="#982016"/><polygon points="175.54,84.20 194.35,76.96 193.80,75.88" fill="#a32318"/><polygon points="169.12,37.93 168.95,66.94 171.09,37.39" fill="#982016"/><polygon points="172.80,81.41 174.18,82.16 193.03,75.01" fill="#ba291d"/><polygon points="174.18,82.16 174.98,83.07 193.80,75.88" fill="#af261b"/><polygon points="175.54,84.20 175.85,85.98 194.35,76.96" fill="#982016"/><polygon points="174.98,83.07 175.54,84.20 193.80,75.88" fill="#a32318"/><polygon points="172.80,81.41 171.69,82.23 174.18,82.16" fill="#be2b1e"/><polygon points="171.69,82.23 173.05,82.80 174.18,82.16" fill="#bf2b1e"/><polygon points="174.18,82.16 173.05,82.80 174.98,83.07" fill="#b4281c"/><polygon points="174.42,86.32 175.85,85.98 175.54,84.20" fill="#982016"/><polygon points="171.69,82.23 171.04,83.18 173.05,82.80" fill="#c22b1f"/><polygon points="174.30,84.68 175.54,84.20 174.98,83.07" fill="#a82519"/><polygon points="173.05,82.80 174.03,83.51 174.98,83.07" fill="#b5281c"/><polygon points="174.03,83.51 174.30,84.68 174.98,83.07" fill="#a52419"/><polygon points="174.30,84.68 174.42,86.32 175.54,84.20" fill="#982016"/><polygon points="171.04,83.18 172.17,83.56 173.05,82.80" fill="#c22c1f"/><polygon points="171.04,83.18 170.57,84.34 172.17,83.56" fill="#c02b1f"/><polygon points="170.57,84.34 170.29,86.14 172.02,84.74" fill="#b7291d"/><polygon points="173.05,82.80 172.17,83.56 174.03,83.51" fill="#b8291d"/><polygon points="170.29,86.14 171.93,86.40 172.02,84.74" fill="#b6281c"/><polygon points="170.57,84.34 172.02,84.74 172.17,83.56" fill="#bf2b1e"/><polygon points="172.17,83.56 173.14,84.01 174.03,83.51" fill="#bb2a1d"/><polygon points="173.20,86.42 174.42,86.32 174.30,84.68" fill="#a42318"/><polygon points="173.19,85.09 174.30,84.68 174.03,83.51" fill="#b2271b"/><polygon points="173.14,84.01 173.19,85.09 174.03,83.51" fill="#aa251a"/><polygon points="172.17,83.56 172.02,84.74 173.14,84.01" fill="#b9291d"/><polygon points="173.19,85.09 173.20,86.42 174.30,84.68" fill="#a12218"/><polygon points="171.93,86.40 173.20,86.42 173.19,85.09" fill="#ac261a"/><polygon points="172.02,84.74 171.93,86.40 173.19,85.09" fill="#af261b"/><polygon points="172.02,84.74 173.19,85.09 173.14,84.01" fill="#b5281c"/></svg>