<svg xmlns="http://www.w3.org/2000/svg" viewBox="0 0 320 290"><rect width="320" height="290" rx="12" fill="#e6edf0"/><polygon points="91.89,122.04 85.10,125.10 98.55,124.58" fill="#141517"/><polygon points="88.00,126.49 88.05,126.70 88.03,126.58" fill="#23404e"/><polygon points="88.05,126.70 88.11,126.83 88.03,126.58" fill="#233f4e"/><polygon points="88.11,126.83 88.23,126.98 88.27,126.96" fill="#1e3845"/><polygon points="95.62,126.69 95.69,126.56 95.78,126.40" fill="#1d3642"/><polygon points="88.23,126.98 88.38,127.08 88.27,126.96" fill="#1d3743"/><polygon points="95.72,126.54 95.78,126.40 95.81,126.19" fill="#1d3642"/><polygon points="88.03,126.58 88.11,126.83 88.20,126.69" fill="#233f4d"/><polygon points="95.47,126.81 95.62,126.69 95.72,126.54" fill="#1d3642"/><polygon points="88.11,126.83 88.27,126.96 88.20,126.69" fill="#223e4d"/><polygon points="95.77,126.28 95.72,126.54 95.81,126.19" fill="#1d3642"/><polygon points="95.56,126.68 95.47,126.81 95.72,126.54" fill="#1d3642"/><polygon points="95.56,126.68 95.72,126.54 95.77,126.28" fill="#1d3642"/><polygon points="95.60,126.41 95.56,126.68 95.77,126.28" fill="#1d3642"/><polygon points="88.38,127.08 88.52,127.14 91.54,128.32" fill="#1d3642"/><polygon points="95.35,126.87 95.47,126.81 92.26,128.29" fill="#1d3642"/><polygon points="88.27,126.96 88.38,127.08 91.43,128.20" fill="#1d3642"/><polygon points="92.26,128.29 95.47,126.81 95.56,126.68" fill="#1d3642"/><polygon points="88.20,126.69 88.27,126.96 91.37,127.93" fill="#223d4b"/><polygon points="92.34,128.16 95.56,126.68 95.60,126.41" fill="#1d3642"/><polygon points="88.52,127.14 91.68,128.38 91.54,128.32" fill="#1d3642"/><polygon points="92.13,128.36 95.35,126.87 92.26,128.29" fill="#1d3642"/><polygon points="88.38,127.08 91.54,128.32 91.43,128.20" fill="#1d3642"/><polygon points="91.88,129.86 98.64,126.72 98.55,124.58" fill="#0d0f10"/><polygon points="92.34,128.16 92.26,128.29 95.56,126.68" fill="#1d3642"/><polygon points="88.27,126.96 91.43,128.20 91.37,127.93" fill="#223d4b"/><polygon points="85.10,125.10 85.22,127.24 91.77,127.71" fill="#121415"/><polygon points="92.38,127.89 92.34,128.16 95.60,126.41" fill="#1d3642"/><polygon points="85.10,125.10 91.77,127.71 98.55,124.58" fill="#141517"/><polygon points="91.54,128.32 91.68,128.38 91.73,128.35" fill="#1d3642"/><polygon points="91.68,128.38 91.90,128.40 91.73,128.35" fill="#1d3642"/><polygon points="92.13,128.36 92.26,128.29 92.06,128.34" fill="#1d3642"/><polygon points="91.90,128.40 92.13,128.36 92.06,128.34" fill="#1d3642"/><polygon points="92.06,128.34 92.26,128.29 92.34,128.16" fill="#1d3642"/><polygon points="91.73,128.35 91.90,128.40 91.89,128.32" fill="#1d3642"/><polygon points="91.90,128.40 92.06,128.34 91.89,128.32" fill="#1d3642"/><polygon points="91.54,128.32 91.73,128.35 91.68,128.23" fill="#1d3642"/><polygon points="91.43,128.20 91.54,128.32 91.68,128.23" fill="#1d3642"/><polygon points="92.09,128.22 92.06,128.34 92.34,128.16" fill="#1d3642"/><polygon points="91.89,128.32 92.06,128.34 92.09,128.22" fill="#1d3642"/><polygon points="91.73,128.35 91.89,128.32 91.88,128.20" fill="#1d3642"/><polygon points="91.68,128.23 91.73,128.35 91.88,128.20" fill="#1d3642"/><polygon points="92.09,128.22 92.34,128.16 92.38,127.89" fill="#1d3642"/><polygon points="91.43,128.20 91.68,128.23 91.64,128.00" fill="#213c4a"/><polygon points="91.88,128.20 91.89,128.32 92.09,128.22" fill="#1d3642"/><polygon points="91.37,127.93 91.43,128.20 91.64,128.00" fill="#213c49"/><polygon points="92.10,127.98 92.09,128.22 92.38,127.89" fill="#1d3642"/><polygon points="91.88,128.20 92.09,128.22 92.10,127.98" fill="#1d3642"/><polygon points="91.68,128.23 91.88,128.20 91.87,128.00" fill="#1f3946"/><polygon points="91.64,128.00 91.68,128.23 91.87,128.00" fill="#1e3845"/><polygon points="91.87,128.00 91.88,128.20 92.10,127.98" fill="#1d3642"/><polygon points="85.22,127.24 91.88,129.86 91.77,127.71" fill="#121415"/><polygon points="91.77,127.71 91.88,129.86 98.55,124.58" fill="#0d0f10"/><polygon points="89.80,108.84 89.68,108.86 89.93,108.85" fill="#737c7f"/><polygon points="89.68,108.86 89.80,108.87 89.93,108.85" fill="#737c7f"/><polygon points="84.90,68.36 84.69,68.37 85.10,68.36" fill="#737c7f"/><polygon points="84.69,68.37 84.89,68.37 85.10,68.36" fill="#737c7f"/><polygon points="88.00,126.49 88.03,126.58 85.44,79.97" fill="#254351"/><polygon points="95.77,126.28 95.81,126.19 93.55,79.64" fill="#1d3642"/><polygon points="88.03,126.58 88.20,126.69 85.62,80.06" fill="#254251"/><polygon points="95.60,126.41 95.77,126.28 93.52,79.72" fill="#1d3642"/><polygon points="92.38,127.89 95.60,126.41 93.33,79.82" fill="#1d3642"/><polygon points="88.20,126.69 91.37,127.93 88.90,81.10" fill="#244150"/><polygon points="92.10,127.98 92.38,127.89 89.96,81.07" fill="#1d3642"/><polygon points="91.37,127.93 91.64,128.00 89.19,81.16" fill="#233f4e"/><polygon points="91.87,128.00 92.10,127.98 89.67,81.14" fill="#1e3744"/><polygon points="91.64,128.00 91.87,128.00 89.43,81.16" fill="#203b49"/><polygon points="85.41,79.89 88.00,126.49 85.44,79.97" fill="#254351"/><polygon points="85.44,79.97 88.03,126.58 85.62,80.06" fill="#254251"/><polygon points="93.52,79.72 95.77,126.28 93.55,79.64" fill="#1d3642"/><polygon points="93.33,79.82 95.60,126.41 93.52,79.72" fill="#1d3642"/><polygon points="85.62,80.06 88.20,126.69 88.90,81.10" fill="#244150"/><polygon points="89.68,108.86 53.50,124.15 89.80,108.87" fill="#778083"/><polygon points="89.96,81.07 92.38,127.89 93.33,79.82" fill="#1d3642"/><polygon points="89.51,77.92 89.27,77.94 89.73,77.93" fill="#264453"/><polygon points="88.90,81.10 91.37,127.93 89.19,81.16" fill="#233f4e"/><polygon points="89.27,77.94 89.49,77.94 89.73,77.93" fill="#264453"/><polygon points="89.67,81.14 92.10,127.98 89.96,81.07" fill="#1d3642"/><polygon points="89.19,81.16 91.64,128.00 89.43,81.16" fill="#203b49"/><polygon points="89.43,81.16 91.87,128.00 89.67,81.14" fill="#1e3744"/><polygon points="89.27,77.94 85.89,79.17 89.49,77.94" fill="#274656"/><polygon points="89.73,77.93 89.49,77.94 93.02,78.95" fill="#254352"/><polygon points="84.69,68.37 35.46,85.22 84.89,68.37" fill="#778083"/><polygon points="85.89,79.17 86.11,79.17 89.49,77.94" fill="#274656"/><polygon points="89.49,77.94 92.78,78.96 93.02,78.95" fill="#254352"/><polygon points="89.49,77.94 86.11,79.17 92.78,78.96" fill="#274555"/><polygon points="85.50,79.53 85.44,79.66 85.52,79.48" fill="#284756"/><polygon points="85.60,79.36 85.69,79.31 85.89,79.17" fill="#284857"/><polygon points="85.60,79.36 85.52,79.48 85.69,79.31" fill="#294858"/><polygon points="85.44,79.66 85.41,79.89 85.49,79.67" fill="#264554"/><polygon points="85.89,79.17 85.69,79.31 86.11,79.17" fill="#284857"/><polygon points="93.16,79.03 93.02,78.95 93.32,79.12" fill="#203b49"/><polygon points="85.41,79.89 85.44,79.97 85.49,79.67" fill="#274554"/><polygon points="85.52,79.48 85.44,79.66 85.60,79.48" fill="#284857"/><polygon points="93.50,79.41 93.44,79.28 93.32,79.12" fill="#1d3642"/><polygon points="85.52,79.48 85.60,79.48 85.69,79.31" fill="#294959"/><polygon points="85.44,79.66 85.49,79.67 85.60,79.48" fill="#284858"/><polygon points="93.02,78.95 93.21,79.08 93.32,79.12" fill="#213c4a"/><polygon points="85.69,79.31 85.88,79.33 86.11,79.17" fill="#284858"/><polygon points="93.52,79.72 93.55,79.64 93.50,79.41" fill="#1d3642"/><polygon points="85.69,79.31 85.60,79.48 85.88,79.33" fill="#294959"/><polygon points="93.32,79.12 93.21,79.08 93.40,79.24" fill="#1e3845"/><polygon points="85.49,79.67 85.44,79.97 85.66,79.73" fill="#264554"/><polygon points="93.02,78.95 92.78,78.96 93.21,79.08" fill="#244150"/><polygon points="85.60,79.48 85.49,79.67 85.75,79.51" fill="#284857"/><polygon points="93.44,79.43 93.50,79.41 93.40,79.24" fill="#1d3642"/><polygon points="85.44,79.97 85.62,80.06 85.66,79.73" fill="#264554"/><polygon points="93.44,79.43 93.52,79.72 93.50,79.41" fill="#1d3642"/><polygon points="85.60,79.48 85.75,79.51 85.88,79.33" fill="#294959"/><polygon points="93.21,79.08 93.31,79.24 93.40,79.24" fill="#1f3946"/><polygon points="85.49,79.67 85.66,79.73 85.75,79.51" fill="#284858"/><polygon points="93.31,79.24 93.44,79.43 93.40,79.24" fill="#1d3642"/><polygon points="92.78,78.96 93.01,79.11 93.21,79.08" fill="#244150"/><polygon points="93.21,79.08 93.01,79.11 93.31,79.24" fill="#223d4b"/><polygon points="93.33,79.82 93.52,79.72 93.44,79.43" fill="#1d3642"/><polygon points="93.26,79.49 93.44,79.43 93.31,79.24" fill="#1e3744"/><polygon points="93.01,79.11 93.16,79.28 93.31,79.24" fill="#223d4b"/><polygon points="93.26,79.49 93.33,79.82 93.44,79.43" fill="#1d3642"/><polygon points="93.16,79.28 93.26,79.49 93.31,79.24" fill="#1e3845"/><polygon points="86.11,79.17 85.88,79.33 89.40,80.20" fill="#284757"/><polygon points="86.11,79.17 89.40,80.20 92.78,78.96" fill="#274555"/><polygon points="92.78,78.96 89.40,80.20 93.01,79.11" fill="#264453"/><polygon points="85.88,79.33 85.75,79.51 89.17,80.37" fill="#284858"/><polygon points="85.66,79.73 85.62,80.06 88.94,80.77" fill="#264453"/><polygon points="85.75,79.51 85.66,79.73 89.03,80.55" fill="#284757"/><polygon points="93.01,79.11 89.64,80.35 93.16,79.28" fill="#233f4d"/><polygon points="89.96,81.07 93.33,79.82 93.26,79.49" fill="#1d3642"/><polygon points="89.89,80.74 93.26,79.49 93.16,79.28" fill="#203a48"/><polygon points="85.88,79.33 89.17,80.37 89.40,80.20" fill="#284757"/><polygon points="89.40,80.20 89.64,80.35 93.01,79.11" fill="#264453"/><polygon points="85.75,79.51 89.03,80.55 89.17,80.37" fill="#284858"/><polygon points="85.62,80.06 88.90,81.10 88.94,80.77" fill="#264453"/><polygon points="85.66,79.73 88.94,80.77 89.03,80.55" fill="#284757"/><polygon points="89.64,80.35 89.78,80.53 93.16,79.28" fill="#233f4d"/><polygon points="89.89,80.74 89.96,81.07 93.26,79.49" fill="#1d3642"/><polygon points="89.78,80.53 89.89,80.74 93.16,79.28" fill="#203a48"/><polygon points="89.40,80.20 89.17,80.37 89.64,80.35" fill="#274555"/><polygon points="89.17,80.37 89.40,80.48 89.64,80.35" fill="#274655"/><polygon points="89.17,80.37 89.03,80.55 89.40,80.48" fill="#284756"/><polygon points="89.64,80.35 89.40,80.48 89.78,80.53" fill="#244150"/><polygon points="89.03,80.55 88.94,80.77 89.23,80.62" fill="#274656"/><polygon points="88.94,80.77 88.90,81.10 89.20,80.85" fill="#254351"/><polygon points="89.67,81.14 89.96,81.07 89.89,80.74" fill="#1d3642"/><polygon points="89.03,80.55 89.23,80.62 89.40,80.48" fill="#284757"/><polygon points="89.40,80.48 89.58,80.61 89.78,80.53" fill="#244250"/><polygon points="89.63,80.83 89.89,80.74 89.78,80.53" fill="#213d4a"/><polygon points="88.90,81.10 89.19,81.16 89.20,80.85" fill="#254251"/><polygon points="88.94,80.77 89.20,80.85 89.23,80.62" fill="#274655"/><polygon points="89.58,80.61 89.63,80.83 89.78,80.53" fill="#203b49"/><polygon points="89.40,80.48 89.23,80.62 89.58,80.61" fill="#254352"/><polygon points="89.63,80.83 89.67,81.14 89.89,80.74" fill="#1d3642"/><polygon points="89.23,80.62 89.41,80.71 89.58,80.61" fill="#264453"/><polygon points="89.23,80.62 89.20,80.85 89.41,80.71" fill="#254352"/><polygon points="89.43,81.16 89.67,81.14 89.63,80.83" fill="#203b48"/><polygon points="89.19,81.16 89.43,81.16 89.42,80.91" fill="#223e4c"/><polygon points="89.20,80.85 89.19,81.16 89.42,80.91" fill="#233f4d"/><polygon points="89.42,80.91 89.63,80.83 89.58,80.61" fill="#23404f"/><polygon points="89.41,80.71 89.42,80.91 89.58,80.61" fill="#223d4b"/><polygon points="89.42,80.91 89.43,81.16 89.63,80.83" fill="#1f3946"/><polygon points="89.20,80.85 89.42,80.91 89.41,80.71" fill="#244250"/><polygon points="53.50,124.15 53.62,124.16 89.80,108.87" fill="#778083"/><polygon points="57.96,137.30 50.24,140.77 64.66,140.19" fill="#141517"/><polygon points="53.52,142.59 53.66,142.74 53.68,142.73" fill="#1e3845"/><polygon points="53.66,142.74 53.81,142.86 53.68,142.73" fill="#1d3743"/><polygon points="53.43,142.33 53.52,142.59 53.59,142.46" fill="#233f4d"/><polygon points="53.52,142.59 53.68,142.73 53.59,142.46" fill="#223e4d"/><polygon points="61.58,142.42 61.67,142.28 61.75,142.11" fill="#1d3642"/><polygon points="61.68,142.26 61.75,142.11 61.77,141.88" fill="#1d3642"/><polygon points="61.41,142.54 61.58,142.42 61.68,142.26" fill="#1d3642"/><polygon points="61.72,141.99 61.68,142.26 61.77,141.88" fill="#1d3642"/><polygon points="61.49,142.41 61.41,142.54 61.68,142.26" fill="#1d3642"/><polygon points="61.49,142.41 61.68,142.26 61.72,141.99" fill="#1d3642"/><polygon points="61.52,142.13 61.49,142.41 61.72,141.99" fill="#1d3642"/><polygon points="53.68,142.73 53.81,142.86 56.86,144.14" fill="#1d3642"/><polygon points="53.59,142.46 53.68,142.73 56.77,143.87" fill="#223d4b"/><polygon points="61.29,142.61 61.41,142.54 57.75,144.23" fill="#1d3642"/><polygon points="57.75,144.23 61.41,142.54 61.49,142.41" fill="#1d3642"/><polygon points="57.83,144.10 61.49,142.41 61.52,142.13" fill="#1d3642"/><polygon points="53.81,142.86 56.99,144.27 56.86,144.14" fill="#1d3642"/><polygon points="50.24,140.77 50.45,143.02 56.95,143.74" fill="#121415"/><polygon points="57.63,144.30 61.29,142.61 57.75,144.23" fill="#1d3642"/><polygon points="53.68,142.73 56.86,144.14 56.77,143.87" fill="#223d4b"/><polygon points="57.83,144.10 57.75,144.23 61.49,142.41" fill="#1d3642"/><polygon points="57.15,146.01 64.84,142.43 64.66,140.19" fill="#0d0f10"/><polygon points="57.86,143.82 57.83,144.10 61.52,142.13" fill="#1d3642"/><polygon points="50.24,140.77 56.95,143.74 64.66,140.19" fill="#141517"/><polygon points="56.99,144.27 57.15,144.32 57.18,144.30" fill="#1d3642"/><polygon points="57.15,144.32 57.37,144.35 57.18,144.30" fill="#1d3642"/><polygon points="57.37,144.35 57.63,144.30 57.54,144.29" fill="#1d3642"/><polygon points="57.63,144.30 57.75,144.23 57.54,144.29" fill="#1d3642"/><polygon points="57.18,144.30 57.37,144.35 57.35,144.27" fill="#1d3642"/><polygon points="56.86,144.14 56.99,144.27 57.11,144.18" fill="#1d3642"/><polygon points="56.99,144.27 57.18,144.30 57.11,144.18" fill="#1d3642"/><polygon points="57.54,144.29 57.75,144.23 57.83,144.10" fill="#1d3642"/><polygon points="57.37,144.35 57.54,144.29 57.35,144.27" fill="#1d3642"/><polygon points="57.55,144.17 57.54,144.29 57.83,144.10" fill="#1d3642"/><polygon points="57.35,144.27 57.54,144.29 57.55,144.17" fill="#1d3642"/><polygon points="57.18,144.30 57.35,144.27 57.32,144.15" fill="#1d3642"/><polygon points="57.11,144.18 57.18,144.30 57.32,144.15" fill="#1d3642"/><polygon points="56.86,144.14 57.11,144.18 57.06,143.94" fill="#213c4a"/><polygon points="56.77,143.87 56.86,144.14 57.06,143.94" fill="#213c49"/><polygon points="57.55,144.17 57.83,144.10 57.86,143.82" fill="#1d3642"/><polygon points="57.32,144.15 57.35,144.27 57.55,144.17" fill="#1d3642"/><polygon points="57.11,144.18 57.32,144.15 57.30,143.95" fill="#1f3946"/><polygon points="57.32,144.15 57.55,144.17 57.55,143.92" fill="#1d3642"/><polygon points="57.55,143.92 57.55,144.17 57.86,143.82" fill="#1d3642"/><polygon points="57.06,143.94 57.11,144.18 57.30,143.95" fill="#1e3845"/><polygon points="57.30,143.95 57.32,144.15 57.55,143.92" fill="#1d3642"/><polygon points="35.46,85.22 35.65,85.22 84.89,68.37" fill="#778083"/><polygon points="50.45,143.02 57.15,146.01 56.95,143.74" fill="#121415"/><polygon points="56.95,143.74 57.15,146.01 64.66,140.19" fill="#0d0f10"/><polygon points="53.50,127.18 53.58,127.26 53.59,127.25" fill="#60686b"/><polygon points="53.58,127.26 53.66,127.32 53.59,127.25" fill="#5e6668"/><polygon points="53.45,127.03 53.50,127.18 53.54,127.10" fill="#6b7477"/><polygon points="53.50,127.18 53.59,127.25 53.54,127.10" fill="#6a7376"/><polygon points="53.44,126.97 53.45,127.03 53.24,124.62" fill="#717a7d"/><polygon points="53.45,127.03 53.54,127.10 53.33,124.68" fill="#70797c"/><polygon points="53.23,124.56 53.44,126.97 53.24,124.62" fill="#717a7d"/><polygon points="53.24,124.62 53.45,127.03 53.33,124.68" fill="#70797c"/><polygon points="53.43,124.20 53.34,124.26 53.50,124.15" fill="#788285"/><polygon points="53.24,124.43 53.23,124.56 53.26,124.46" fill="#747e81"/><polygon points="53.41,142.22 53.43,142.33 49.06,93.24" fill="#254351"/><polygon points="53.34,124.26 53.38,124.24 53.50,124.15" fill="#798386"/><polygon points="53.23,124.56 53.24,124.62 53.26,124.46" fill="#757e81"/><polygon points="53.34,124.26 53.29,124.34 53.38,124.24" fill="#7a8487"/><polygon points="53.29,124.34 53.24,124.43 53.32,124.35" fill="#798285"/><polygon points="53.50,124.15 53.38,124.24 53.62,124.16" fill="#798386"/><polygon points="53.24,124.43 53.26,124.46 53.32,124.35" fill="#798386"/><polygon points="53.29,124.34 53.32,124.35 53.38,124.24" fill="#7b8588"/><polygon points="53.26,124.46 53.24,124.62 53.35,124.50" fill="#747e80"/><polygon points="53.38,124.24 53.48,124.27 53.62,124.16" fill="#798386"/><polygon points="53.38,124.24 53.32,124.35 53.48,124.27" fill="#7b8588"/><polygon points="53.24,124.62 53.33,124.68 53.35,124.50" fill="#757e81"/><polygon points="53.32,124.35 53.26,124.46 53.40,124.37" fill="#798386"/><polygon points="53.26,124.46 53.35,124.50 53.40,124.37" fill="#7a8386"/><polygon points="53.32,124.35 53.40,124.37 53.48,124.27" fill="#7b8588"/><polygon points="53.43,142.33 53.59,142.46 49.22,93.34" fill="#254251"/><polygon points="61.72,141.99 61.77,141.88 57.79,92.86" fill="#1d3642"/><polygon points="61.52,142.13 61.72,141.99 57.74,92.95" fill="#1d3642"/><polygon points="57.86,143.82 61.52,142.13 57.52,93.07" fill="#1d3642"/><polygon points="53.59,142.46 56.77,143.87 52.53,94.53" fill="#244150"/><polygon points="89.93,108.85 89.80,108.87 260.73,170.59" fill="#717a7d"/><polygon points="56.77,143.87 57.06,143.94 52.83,94.59" fill="#233f4e"/><polygon points="57.55,143.92 57.86,143.82 53.67,94.49" fill="#1d3642"/><polygon points="57.06,143.94 57.30,143.95 53.08,94.60" fill="#203b49"/><polygon points="57.30,143.95 57.55,143.92 53.34,94.58" fill="#1e3744"/><polygon points="49.04,93.15 53.41,142.22 49.06,93.24" fill="#254351"/><polygon points="49.06,93.24 53.43,142.33 49.22,93.34" fill="#254251"/><polygon points="57.74,92.95 61.72,141.99 57.79,92.86" fill="#1d3642"/><polygon points="57.52,93.07 61.52,142.13 57.74,92.95" fill="#1d3642"/><polygon points="49.22,93.34 53.59,142.46 52.53,94.53" fill="#244150"/><polygon points="35.53,90.46 35.66,90.61 35.67,90.57" fill="#60686b"/><polygon points="35.66,90.61 35.79,90.70 35.67,90.57" fill="#5e6668"/><polygon points="35.44,90.20 35.53,90.46 35.58,90.29" fill="#6b7477"/><polygon points="35.53,90.46 35.67,90.57 35.58,90.29" fill="#6a7376"/><polygon points="85.10,68.36 84.89,68.37 284.37,127.69" fill="#717a7d"/><polygon points="35.43,90.12 35.44,90.20 35.01,85.99" fill="#717a7d"/><polygon points="35.44,90.20 35.58,90.29 35.16,86.08" fill="#70797c"/><polygon points="35.00,85.91 35.43,90.12 35.01,85.99" fill="#717a7d"/><polygon points="53.67,94.49 57.86,143.82 57.52,93.07" fill="#1d3642"/><polygon points="35.01,85.99 35.44,90.20 35.16,86.08" fill="#70797c"/><polygon points="35.02,85.69 35.00,85.91 35.05,85.71" fill="#747e81"/><polygon points="35.18,85.40 35.09,85.52 35.25,85.36" fill="#7a8487"/><polygon points="35.00,85.91 35.01,85.99 35.05,85.71" fill="#757e81"/><polygon points="35.09,85.52 35.02,85.69 35.15,85.52" fill="#798285"/><polygon points="35.46,85.22 35.25,85.36 35.65,85.22" fill="#798386"/><polygon points="35.02,85.69 35.05,85.71 35.15,85.52" fill="#798386"/><polygon points="35.09,85.52 35.15,85.52 35.25,85.36" fill="#7b8588"/><polygon points="35.25,85.36 35.41,85.38 35.65,85.22" fill="#798386"/><polygon points="35.05,85.71 35.01,85.99 35.19,85.76" fill="#747e80"/><polygon points="35.25,85.36 35.15,85.52 35.41,85.38" fill="#7b8588"/><polygon points="35.15,85.52 35.05,85.71 35.27,85.55" fill="#798386"/><polygon points="35.01,85.99 35.16,86.08 35.19,85.76" fill="#757e81"/><polygon points="35.15,85.52 35.27,85.55 35.41,85.38" fill="#7b8588"/><polygon points="35.05,85.71 35.19,85.76 35.27,85.55" fill="#7a8386"/><polygon points="52.53,94.53 56.77,143.87 52.83,94.59" fill="#233f4e"/><polygon points="53.34,94.58 57.55,143.92 53.67,94.49" fill="#1d3642"/><polygon points="52.83,94.59 57.06,143.94 53.08,94.60" fill="#203b49"/><polygon points="53.08,94.60 57.30,143.95 53.34,94.58" fill="#1e3744"/><polygon points="53.68,90.95 53.41,90.97 53.91,90.96" fill="#264453"/><polygon points="53.41,90.97 53.63,90.98 53.91,90.96" fill="#264453"/><polygon points="53.41,90.97 49.55,92.38 53.63,90.98" fill="#274656"/><polygon points="53.91,90.96 53.63,90.98 57.21,92.12" fill="#254352"/><polygon points="49.55,92.38 49.77,92.38 53.63,90.98" fill="#274656"/><polygon points="53.63,90.98 49.77,92.38 56.94,92.15" fill="#274555"/><polygon points="53.63,90.98 56.94,92.15 57.21,92.12" fill="#254352"/><polygon points="49.24,92.58 49.32,92.53 49.55,92.38" fill="#284857"/><polygon points="89.80,108.87 53.62,124.16 260.63,170.63" fill="#757f82"/><polygon points="49.06,92.90 49.04,93.15 49.10,92.92" fill="#264554"/><polygon points="49.24,92.58 49.15,92.71 49.32,92.53" fill="#294858"/><polygon points="49.04,93.15 49.06,93.24 49.10,92.92" fill="#274554"/><polygon points="49.15,92.71 49.06,92.90 49.21,92.71" fill="#284857"/><polygon points="49.55,92.38 49.32,92.53 49.77,92.38" fill="#284857"/><polygon points="49.06,92.90 49.10,92.92 49.21,92.71" fill="#284858"/><polygon points="49.15,92.71 49.21,92.71 49.32,92.53" fill="#294959"/><polygon points="49.32,92.53 49.51,92.56 49.77,92.38" fill="#284858"/><polygon points="49.10,92.92 49.06,93.24 49.26,92.99" fill="#264554"/><polygon points="49.32,92.53 49.21,92.71 49.51,92.56" fill="#294959"/><polygon points="49.21,92.71 49.10,92.92 49.36,92.76" fill="#284857"/><polygon points="49.06,93.24 49.22,93.34 49.26,92.99" fill="#264554"/><polygon points="49.21,92.71 49.36,92.76 49.51,92.56" fill="#294959"/><polygon points="49.10,92.92 49.26,92.99 49.36,92.76" fill="#284858"/><polygon points="57.79,92.86 57.77,92.77 57.68,92.48" fill="#1d3642"/><polygon points="57.38,92.20 57.21,92.12 57.53,92.31" fill="#203b49"/><polygon points="57.73,92.61 57.68,92.48 57.53,92.31" fill="#1d3642"/><polygon points="57.21,92.12 57.41,92.27 57.53,92.31" fill="#213c4a"/><polygon points="57.61,92.44 57.73,92.61 57.53,92.31" fill="#1d3642"/><polygon points="57.74,92.95 57.79,92.86 57.73,92.61" fill="#1d3642"/><polygon points="57.53,92.31 57.41,92.27 57.61,92.44" fill="#1e3845"/><polygon points="57.21,92.12 56.94,92.15 57.41,92.27" fill="#244150"/><polygon points="57.65,92.64 57.73,92.61 57.61,92.44" fill="#1d3642"/><polygon points="57.65,92.64 57.74,92.95 57.73,92.61" fill="#1d3642"/><polygon points="57.41,92.27 57.51,92.44 57.61,92.44" fill="#1f3946"/><polygon points="57.51,92.44 57.65,92.64 57.61,92.44" fill="#1d3642"/><polygon points="56.94,92.15 57.18,92.31 57.41,92.27" fill="#244150"/><polygon points="57.41,92.27 57.18,92.31 57.51,92.44" fill="#223d4b"/><polygon points="57.52,93.07 57.74,92.95 57.65,92.64" fill="#1d3642"/><polygon points="57.44,92.72 57.65,92.64 57.51,92.44" fill="#1e3744"/><polygon points="57.18,92.31 57.33,92.49 57.51,92.44" fill="#223d4b"/><polygon points="57.44,92.72 57.52,93.07 57.65,92.64" fill="#1d3642"/><polygon points="57.33,92.49 57.44,92.72 57.51,92.44" fill="#1e3845"/><polygon points="49.77,92.38 49.51,92.56 53.08,93.56" fill="#284757"/><polygon points="49.51,92.56 49.36,92.76 52.81,93.74" fill="#284858"/><polygon points="49.26,92.99 49.22,93.34 52.57,94.18" fill="#264453"/><polygon points="49.77,92.38 53.08,93.56 56.94,92.15" fill="#274555"/><polygon points="49.36,92.76 49.26,92.99 52.66,93.94" fill="#284757"/><polygon points="56.94,92.15 53.08,93.56 57.18,92.31" fill="#264453"/><polygon points="57.18,92.31 53.32,93.73 57.33,92.49" fill="#233f4d"/><polygon points="53.67,94.49 57.52,93.07 57.44,92.72" fill="#1d3642"/><polygon points="53.58,94.14 57.44,92.72 57.33,92.49" fill="#203a48"/><polygon points="49.51,92.56 52.81,93.74 53.08,93.56" fill="#284757"/><polygon points="49.22,93.34 52.53,94.53 52.57,94.18" fill="#264453"/><polygon points="49.36,92.76 52.66,93.94 52.81,93.74" fill="#284858"/><polygon points="49.26,92.99 52.57,94.18 52.66,93.94" fill="#284757"/><polygon points="53.08,93.56 53.32,93.73 57.18,92.31" fill="#264453"/><polygon points="53.32,93.73 53.47,93.92 57.33,92.49" fill="#233f4d"/><polygon points="53.58,94.14 53.67,94.49 57.44,92.72" fill="#1d3642"/><polygon points="53.47,93.92 53.58,94.14 57.33,92.49" fill="#203a48"/><polygon points="53.08,93.56 52.81,93.74 53.32,93.73" fill="#274555"/><polygon points="52.81,93.74 53.05,93.87 53.32,93.73" fill="#274655"/><polygon points="52.81,93.74 52.66,93.94 53.05,93.87" fill="#284756"/><polygon points="52.57,94.18 52.53,94.53 52.83,94.27" fill="#254351"/><polygon points="52.66,93.94 52.57,94.18 52.87,94.03" fill="#274656"/><polygon points="53.32,93.73 53.05,93.87 53.47,93.92" fill="#244150"/><polygon points="52.53,94.53 52.83,94.59 52.83,94.27" fill="#254251"/><polygon points="52.66,93.94 52.87,94.03 53.05,93.87" fill="#284757"/><polygon points="53.34,94.58 53.67,94.49 53.58,94.14" fill="#1d3642"/><polygon points="52.57,94.18 52.83,94.27 52.87,94.03" fill="#274655"/><polygon points="53.05,93.87 53.25,94.01 53.47,93.92" fill="#244250"/><polygon points="53.29,94.25 53.58,94.14 53.47,93.92" fill="#213d4a"/><polygon points="53.05,93.87 52.87,94.03 53.25,94.01" fill="#254352"/><polygon points="53.25,94.01 53.29,94.25 53.47,93.92" fill="#203b49"/><polygon points="53.29,94.25 53.34,94.58 53.58,94.14" fill="#1d3642"/><polygon points="52.87,94.03 53.05,94.12 53.25,94.01" fill="#264453"/><polygon points="52.87,94.03 52.83,94.27 53.05,94.12" fill="#254352"/><polygon points="52.83,94.27 52.83,94.59 53.06,94.34" fill="#233f4d"/><polygon points="52.83,94.59 53.08,94.60 53.06,94.34" fill="#223e4c"/><polygon points="53.08,94.60 53.34,94.58 53.29,94.25" fill="#203b48"/><polygon points="53.05,94.12 53.06,94.34 53.25,94.01" fill="#223d4b"/><polygon points="52.83,94.27 53.06,94.34 53.05,94.12" fill="#244250"/><polygon points="53.06,94.34 53.29,94.25 53.25,94.01" fill="#23404f"/><polygon points="53.06,94.34 53.08,94.60 53.29,94.25" fill="#1f3946"/><polygon points="84.89,68.37 35.65,85.22 284.21,127.73" fill="#757f82"/><polygon points="109.62,82.61 90.62,89.97 131.42,89.34" fill="#355146"/><polygon points="53.59,127.25 53.66,127.32 228.29,199.95" fill="#5d6567"/><polygon points="53.54,127.10 53.59,127.25 228.27,199.77" fill="#697174"/><polygon points="53.33,124.68 53.54,127.10 228.51,196.84" fill="#6f787a"/><polygon points="53.62,124.16 53.48,124.27 228.84,196.14" fill="#788285"/><polygon points="53.48,124.27 53.40,124.37 228.70,196.29" fill="#7a8487"/><polygon points="53.35,124.50 53.33,124.68 228.56,196.61" fill="#737d7f"/><polygon points="53.40,124.37 53.35,124.50 228.62,196.44" fill="#788285"/><polygon points="89.80,108.87 260.63,170.63 260.73,170.59" fill="#717a7d"/><polygon points="90.62,89.97 90.75,92.53 112.58,97.23" fill="#324c42"/><polygon points="112.67,99.86 131.45,91.89 131.42,89.34" fill="#293f37"/><polygon points="90.62,89.97 112.58,97.23 131.42,89.34" fill="#355146"/><polygon points="35.79,90.70 35.95,90.77 241.23,165.48" fill="#5d6567"/><polygon points="35.67,90.57 35.79,90.70 241.15,165.33" fill="#5d6567"/><polygon points="84.89,68.37 284.21,127.73 284.37,127.69" fill="#717a7d"/><polygon points="35.58,90.29 35.67,90.57 241.14,164.99" fill="#697174"/><polygon points="90.75,92.53 112.67,99.86 112.58,97.23" fill="#324c42"/><polygon points="112.58,97.23 112.67,99.86 131.42,89.34" fill="#293f37"/><polygon points="35.16,86.08 35.58,90.29 241.62,159.60" fill="#6f787a"/><polygon points="35.65,85.22 35.41,85.38 242.19,158.39" fill="#788285"/><polygon points="35.41,85.38 35.27,85.55 241.96,158.64" fill="#7a8487"/><polygon points="35.19,85.76 35.16,86.08 241.71,159.18" fill="#737d7f"/><polygon points="35.27,85.55 35.19,85.76 241.82,158.89" fill="#788285"/><polygon points="145.02,93.54 126.32,101.76 169.36,101.05" fill="#355146"/><polygon points="53.62,124.16 228.84,196.14 260.63,170.63" fill="#757f82"/><polygon points="252.90,183.51 246.95,188.39 263.53,187.57" fill="#141517"/><polygon points="259.68,190.18 259.79,189.98 259.91,189.68" fill="#1d3642"/><polygon points="259.80,189.88 259.68,190.18 259.91,189.68" fill="#1d3642"/><polygon points="256.89,192.57 259.68,190.18 259.80,189.88" fill="#1d3642"/><polygon points="257.40,195.16 263.24,190.11 263.53,187.57" fill="#0d0f10"/><polygon points="250.22,189.85 250.27,190.17 250.25,190.00" fill="#223e4c"/><polygon points="250.27,190.17 250.28,190.26 250.25,190.00" fill="#223f4d"/><polygon points="250.37,190.44 250.52,190.61 250.41,190.45" fill="#1e3845"/><polygon points="250.28,190.26 250.37,190.44 250.41,190.45" fill="#203a47"/><polygon points="250.52,190.61 250.76,190.76 250.70,190.64" fill="#1d3743"/><polygon points="250.41,190.45 250.52,190.61 250.70,190.64" fill="#1e3845"/><polygon points="250.28,190.26 250.41,190.45 250.38,190.15" fill="#233f4e"/><polygon points="250.25,190.00 250.28,190.26 250.38,190.15" fill="#23404e"/><polygon points="250.41,190.45 250.70,190.64 250.69,190.33" fill="#223e4d"/><polygon points="250.38,190.15 250.41,190.45 250.69,190.33" fill="#233f4d"/><polygon points="250.76,190.76 250.86,190.81 255.83,192.75" fill="#1d3642"/><polygon points="257.01,192.26 256.89,192.57 259.80,189.88" fill="#1d3642"/><polygon points="250.70,190.64 250.76,190.76 255.77,192.62" fill="#1d3642"/><polygon points="250.69,190.33 250.70,190.64 255.76,192.32" fill="#223d4b"/><polygon points="250.86,190.81 255.93,192.80 255.83,192.75" fill="#1d3642"/><polygon points="250.76,190.76 255.83,192.75 255.77,192.62" fill="#1d3642"/><polygon points="250.70,190.64 255.77,192.62 255.76,192.32" fill="#223d4b"/><polygon points="256.54,192.79 256.72,192.71 256.89,192.57" fill="#1d3642"/><polygon points="255.93,192.80 256.29,192.85 256.12,192.81" fill="#1d3642"/><polygon points="246.95,188.39 257.68,192.59 263.53,187.57" fill="#141517"/><polygon points="255.83,192.75 255.93,192.80 256.12,192.81" fill="#1d3642"/><polygon points="256.29,192.85 256.54,192.79 256.37,192.79" fill="#1d3642"/><polygon points="256.65,192.67 256.54,192.79 256.89,192.57" fill="#1d3642"/><polygon points="256.12,192.81 256.29,192.85 256.37,192.79" fill="#1d3642"/><polygon points="256.65,192.67 256.89,192.57 257.01,192.26" fill="#1d3642"/><polygon points="256.37,192.79 256.54,192.79 256.65,192.67" fill="#1d3642"/><polygon points="255.83,192.75 256.12,192.81 256.14,192.69" fill="#1d3642"/><polygon points="255.77,192.62 255.83,192.75 256.14,192.69" fill="#1d3642"/><polygon points="256.12,192.81 256.37,192.79 256.42,192.66" fill="#1d3642"/><polygon points="256.42,192.66 256.37,192.79 256.65,192.67" fill="#1d3642"/><polygon points="256.14,192.69 256.12,192.81 256.42,192.66" fill="#1d3642"/><polygon points="256.73,192.39 256.65,192.67 257.01,192.26" fill="#1d3642"/><polygon points="150.95,112.66 169.31,103.72 169.36,101.05" fill="#293f37"/><polygon points="256.42,192.66 256.65,192.67 256.73,192.39" fill="#1d3642"/><polygon points="255.77,192.62 256.14,192.69 256.17,192.42" fill="#213c4a"/><polygon points="256.14,192.69 256.42,192.66 256.46,192.43" fill="#1f3946"/><polygon points="256.46,192.43 256.42,192.66 256.73,192.39" fill="#1d3642"/><polygon points="255.76,192.32 255.77,192.62 256.17,192.42" fill="#213c49"/><polygon points="256.17,192.42 256.14,192.69 256.46,192.43" fill="#1e3845"/><polygon points="257.68,192.59 257.40,195.16 263.53,187.57" fill="#0d0f10"/><polygon points="246.95,188.39 246.71,190.94 257.68,192.59" fill="#121415"/><polygon points="53.66,127.32 228.33,200.03 228.29,199.95" fill="#5d6567"/><polygon points="126.32,101.76 150.96,109.90 169.36,101.05" fill="#355146"/><polygon points="53.59,127.25 228.29,199.95 228.27,199.77" fill="#697174"/><polygon points="126.32,101.76 126.37,104.44 150.96,109.90" fill="#324c42"/><polygon points="246.71,190.94 257.40,195.16 257.68,192.59" fill="#121415"/><polygon points="53.54,127.10 228.27,199.77 228.51,196.84" fill="#6f787a"/><polygon points="53.48,124.27 228.70,196.29 228.84,196.14" fill="#788285"/><polygon points="53.33,124.68 228.51,196.84 228.56,196.61" fill="#737d7f"/><polygon points="53.40,124.37 228.62,196.44 228.70,196.29" fill="#7a8487"/><polygon points="53.35,124.50 228.56,196.61 228.62,196.44" fill="#788285"/><polygon points="259.80,189.88 259.91,189.68 266.11,133.58" fill="#1d3642"/><polygon points="260.66,174.17 260.73,174.06 260.79,173.88" fill="#5d6567"/><polygon points="260.73,173.99 260.66,174.17 260.79,173.88" fill="#5d6567"/><polygon points="257.01,192.26 259.80,189.88 266.00,133.75" fill="#1d3642"/><polygon points="260.73,173.99 260.79,173.88 261.09,171.13" fill="#5d6567"/><polygon points="250.22,189.85 250.25,190.00 255.93,133.86" fill="#244250"/><polygon points="150.96,109.90 150.95,112.66 169.36,101.05" fill="#293f37"/><polygon points="250.25,190.00 250.38,190.15 256.06,133.99" fill="#254351"/><polygon points="261.03,171.23 260.73,173.99 261.09,171.13" fill="#5d6567"/><polygon points="126.37,104.44 150.95,112.66 150.96,109.90" fill="#324c42"/><polygon points="250.38,190.15 250.69,190.33 256.39,134.15" fill="#254251"/><polygon points="260.79,170.62 260.73,170.59 260.92,170.70" fill="#666e71"/><polygon points="261.07,170.94 261.06,170.90 261.01,170.80" fill="#5d6567"/><polygon points="260.92,170.70 260.90,170.70 261.01,170.80" fill="#61696b"/><polygon points="260.73,170.59 260.90,170.70 260.92,170.70" fill="#666f71"/><polygon points="261.03,171.23 261.09,171.13 261.07,170.94" fill="#5d6567"/><polygon points="260.99,170.82 261.07,170.94 261.01,170.80" fill="#5d6567"/><polygon points="260.90,170.70 260.99,170.82 261.01,170.80" fill="#616a6c"/><polygon points="260.73,170.59 260.63,170.63 260.90,170.70" fill="#6f787b"/><polygon points="261.01,171.02 261.07,170.94 260.99,170.82" fill="#5f6669"/><polygon points="261.01,171.02 261.03,171.23 261.07,170.94" fill="#5d6567"/><polygon points="260.90,170.70 260.82,170.75 260.99,170.82" fill="#697274"/><polygon points="260.63,170.63 260.82,170.75 260.90,170.70" fill="#6f787b"/><polygon points="260.93,170.87 261.01,171.02 260.99,170.82" fill="#61696b"/><polygon points="260.82,170.75 260.93,170.87 260.99,170.82" fill="#697174"/><polygon points="250.69,190.33 255.76,192.32 261.79,135.86" fill="#244150"/><polygon points="256.73,192.39 257.01,192.26 263.11,135.80" fill="#1d3642"/><polygon points="256.46,192.43 256.73,192.39 262.82,135.92" fill="#1e3744"/><polygon points="256.17,192.42 256.46,192.43 262.53,135.95" fill="#203b49"/><polygon points="255.76,192.32 256.17,192.42 262.22,135.94" fill="#233f4e"/><polygon points="35.65,85.22 242.19,158.39 284.21,127.73" fill="#757f82"/><polygon points="266.00,133.75 259.80,189.88 266.11,133.58" fill="#1d3642"/><polygon points="184.60,105.76 166.42,115.01 211.98,114.21" fill="#355146"/><polygon points="255.89,133.73 250.22,189.85 255.93,133.86" fill="#244250"/><polygon points="255.93,133.86 250.25,190.00 256.06,133.99" fill="#254351"/><polygon points="256.06,133.99 250.38,190.15 256.39,134.15" fill="#254251"/><polygon points="263.11,135.80 257.01,192.26 266.00,133.75" fill="#1d3642"/><polygon points="256.39,134.15 250.69,190.33 261.79,135.86" fill="#244150"/><polygon points="223.10,117.10 223.24,117.41 223.11,117.10" fill="#151c21"/><polygon points="223.24,117.41 223.41,117.65 223.36,117.55" fill="#141a1f"/><polygon points="223.08,116.65 223.10,117.10 223.11,116.74" fill="#181f24"/><polygon points="262.82,135.92 256.73,192.39 263.11,135.80" fill="#1d3642"/><polygon points="223.10,117.10 223.11,117.10 223.11,116.74" fill="#181f25"/><polygon points="223.41,117.65 223.76,117.86 223.65,117.70" fill="#13191e"/><polygon points="262.53,135.95 256.46,192.43 262.82,135.92" fill="#1e3744"/><polygon points="223.36,117.55 223.41,117.65 223.65,117.70" fill="#13191e"/><polygon points="223.11,117.10 223.20,117.37 223.25,117.28" fill="#161d23"/><polygon points="261.79,135.86 255.76,192.32 262.22,135.94" fill="#233f4e"/><polygon points="223.20,117.37 223.36,117.55 223.25,117.28" fill="#161c21"/><polygon points="262.22,135.94 256.17,192.42 262.53,135.95" fill="#203b49"/><polygon points="223.11,116.74 223.11,117.10 223.25,116.85" fill="#192026"/><polygon points="223.11,117.10 223.25,117.28 223.25,116.85" fill="#192025"/><polygon points="223.25,117.28 223.36,117.55 223.59,117.45" fill="#161c22"/><polygon points="223.36,117.55 223.65,117.70 223.59,117.45" fill="#151c21"/><polygon points="223.25,116.85 223.25,117.28 223.61,116.99" fill="#192025"/><polygon points="223.25,117.28 223.59,117.45 223.61,116.99" fill="#182025"/><polygon points="231.44,92.68 227.89,93.33 231.89,92.68" fill="#1a2127"/><polygon points="228.87,200.00 260.56,174.25 260.66,174.17" fill="#5d6567"/><polygon points="228.97,199.92 260.66,174.17 260.73,173.99" fill="#5d6567"/><polygon points="223.08,116.65 223.11,116.74 227.06,94.31" fill="#192126"/><polygon points="229.04,199.73 260.73,173.99 261.03,171.23" fill="#5d6567"/><polygon points="223.11,116.74 223.25,116.85 227.21,94.40" fill="#1a2127"/><polygon points="223.25,116.85 223.61,116.99 227.58,94.53" fill="#1a2127"/><polygon points="259.43,130.96 259.24,131.02 259.69,130.88" fill="#264453"/><polygon points="229.27,196.80 261.03,171.23 261.01,171.02" fill="#5d6567"/><polygon points="259.69,130.88 259.48,130.93 260.06,130.91" fill="#264453"/><polygon points="260.63,170.63 228.84,196.14 260.82,170.75" fill="#737c7f"/><polygon points="229.24,196.57 261.01,171.02 260.93,170.87" fill="#646c6f"/><polygon points="260.82,170.75 229.04,196.28 260.93,170.87" fill="#6c7577"/><polygon points="227.89,93.33 228.34,93.33 231.89,92.68" fill="#1a2127"/><polygon points="259.48,130.93 259.86,130.96 260.06,130.91" fill="#264453"/><polygon points="227.03,94.23 223.08,116.65 227.06,94.31" fill="#192126"/><polygon points="227.06,94.31 223.11,116.74 227.21,94.40" fill="#1a2127"/><polygon points="260.06,130.91 259.86,130.96 265.43,132.58" fill="#254352"/><polygon points="227.21,94.40 223.25,116.85 227.58,94.53" fill="#1a2127"/><polygon points="259.24,131.02 256.32,133.03 259.48,130.93" fill="#274655"/><polygon points="223.65,117.70 223.76,117.86 250.30,125.92" fill="#13191e"/><polygon points="259.86,130.96 265.24,132.64 265.43,132.58" fill="#254352"/><polygon points="259.48,130.93 256.56,132.94 259.86,130.96" fill="#274656"/><polygon points="223.59,117.45 223.65,117.70 250.25,125.67" fill="#151b20"/><polygon points="227.60,93.46 227.44,93.55 227.89,93.33" fill="#1b2228"/><polygon points="227.21,93.80 227.03,94.23 227.19,93.95" fill="#1a2227"/><polygon points="227.44,93.55 227.68,93.47 227.89,93.33" fill="#1b2328"/><polygon points="223.61,116.99 223.59,117.45 250.29,125.20" fill="#181f25"/><polygon points="227.89,93.33 227.68,93.47 228.34,93.33" fill="#1b2228"/><polygon points="227.44,93.55 227.21,93.80 227.37,93.70" fill="#1b2329"/><polygon points="266.07,133.23 266.05,133.17 265.96,132.96" fill="#1d3642"/><polygon points="265.80,132.79 265.76,132.77 265.96,132.96" fill="#1e3845"/><polygon points="227.03,94.23 227.06,94.31 227.19,93.95" fill="#1a2227"/><polygon points="227.21,93.80 227.19,93.95 227.37,93.70" fill="#1b2329"/><polygon points="227.44,93.55 227.37,93.70 227.68,93.47" fill="#1c2329"/><polygon points="265.93,132.99 266.07,133.23 265.96,132.96" fill="#1d3642"/><polygon points="265.76,132.77 265.93,132.99 265.96,132.96" fill="#1f3946"/><polygon points="266.00,133.75 266.11,133.58 266.07,133.23" fill="#1d3642"/><polygon points="265.43,132.58 265.24,132.64 265.76,132.77" fill="#244150"/><polygon points="227.68,93.47 228.07,93.49 228.34,93.33" fill="#1b2228"/><polygon points="227.19,93.95 227.06,94.31 227.37,93.95" fill="#1b2328"/><polygon points="227.37,93.70 227.58,93.68 227.68,93.47" fill="#1c242a"/><polygon points="227.37,93.70 227.19,93.95 227.58,93.68" fill="#1c242a"/><polygon points="265.95,133.34 266.07,133.23 265.93,132.99" fill="#1e3744"/><polygon points="265.76,132.77 265.61,132.84 265.93,132.99" fill="#223d4b"/><polygon points="227.06,94.31 227.21,94.40 227.37,93.95" fill="#1b2329"/><polygon points="227.68,93.47 227.58,93.68 228.07,93.49" fill="#1c242a"/><polygon points="265.95,133.34 266.00,133.75 266.07,133.23" fill="#1d3642"/><polygon points="227.19,93.95 227.37,93.95 227.58,93.68" fill="#1c242a"/><polygon points="231.89,92.68 228.34,93.33 258.89,100.03" fill="#192126"/><polygon points="265.24,132.64 265.61,132.84 265.76,132.77" fill="#244150"/><polygon points="265.82,133.07 265.95,133.34 265.93,132.99" fill="#1e3845"/><polygon points="265.61,132.84 265.82,133.07 265.93,132.99" fill="#223d4b"/><polygon points="259.86,130.96 256.94,132.97 265.24,132.64" fill="#274555"/><polygon points="227.58,93.68 227.88,93.73 228.07,93.49" fill="#1c242a"/><polygon points="227.58,93.68 227.37,93.95 227.88,93.73" fill="#1c242a"/><polygon points="284.15,133.99 284.26,133.82 284.37,133.51" fill="#5d6567"/><polygon points="227.37,93.95 227.21,94.40 227.73,94.03" fill="#1b2328"/><polygon points="227.37,93.95 227.73,94.03 227.88,93.73" fill="#1c242a"/><polygon points="227.21,94.40 227.58,94.53 227.73,94.03" fill="#1b2329"/><polygon points="284.28,133.67 284.15,133.99 284.37,133.51" fill="#5d6567"/><polygon points="256.32,133.03 256.56,132.94 259.48,130.93" fill="#274655"/><polygon points="256.56,132.94 256.94,132.97 259.86,130.96" fill="#274656"/><polygon points="284.28,133.67 284.37,133.51 285.00,128.60" fill="#5d6567"/><polygon points="254.78,125.01 254.92,124.90 255.17,124.66" fill="#13191e"/><polygon points="255.02,124.79 255.17,124.66 255.35,124.23" fill="#13191e"/><polygon points="255.02,124.79 254.78,125.01 255.17,124.66" fill="#13191e"/><polygon points="263.11,135.80 266.00,133.75 265.95,133.34" fill="#1d3642"/><polygon points="255.22,124.34 255.02,124.79 255.35,124.23" fill="#13191e"/><polygon points="265.24,132.64 262.35,134.67 265.61,132.84" fill="#264453"/><polygon points="263.06,135.39 265.95,133.34 265.82,133.07" fill="#203a48"/><polygon points="265.61,132.84 262.72,134.89 265.82,133.07" fill="#233f4d"/><polygon points="284.91,128.75 284.28,133.67 285.00,128.60" fill="#5d6567"/><polygon points="256.32,133.03 256.14,133.20 256.20,133.19" fill="#274555"/><polygon points="256.14,133.20 256.01,133.39 256.20,133.19" fill="#274555"/><polygon points="35.95,90.77 241.34,165.54 241.23,165.48" fill="#5d6567"/><polygon points="256.32,133.03 256.20,133.19 256.56,132.94" fill="#284757"/><polygon points="256.01,133.39 255.89,133.73 256.01,133.58" fill="#264453"/><polygon points="255.89,133.73 255.93,133.86 256.01,133.58" fill="#264453"/><polygon points="194.15,127.10 211.82,117.01 211.98,114.21" fill="#293f37"/><polygon points="256.20,133.19 256.01,133.39 256.15,133.36" fill="#284757"/><polygon points="284.70,127.88 284.68,127.85 284.85,128.03" fill="#61696b"/><polygon points="256.20,133.19 256.39,133.15 256.56,132.94" fill="#284857"/><polygon points="35.79,90.70 241.23,165.48 241.15,165.33" fill="#5d6567"/><polygon points="256.01,133.39 256.01,133.58 256.15,133.36" fill="#284756"/><polygon points="256.94,132.97 262.35,134.67 265.24,132.64" fill="#274555"/><polygon points="256.56,132.94 256.39,133.15 256.94,132.97" fill="#284857"/><polygon points="256.20,133.19 256.15,133.36 256.39,133.15" fill="#294858"/><polygon points="284.84,128.05 284.96,128.27 284.85,128.03" fill="#5d6567"/><polygon points="284.68,127.85 284.84,128.05 284.85,128.03" fill="#616a6c"/><polygon points="256.01,133.58 255.93,133.86 256.17,133.63" fill="#264554"/><polygon points="284.91,128.75 285.00,128.60 284.96,128.27" fill="#5d6567"/><polygon points="255.93,133.86 256.06,133.99 256.17,133.63" fill="#274554"/><polygon points="284.37,127.69 284.21,127.73 284.68,127.85" fill="#6f787b"/><polygon points="256.15,133.36 256.01,133.58 256.32,133.38" fill="#284857"/><polygon points="256.15,133.36 256.32,133.38 256.39,133.15" fill="#294959"/><polygon points="256.39,133.15 256.73,133.21 256.94,132.97" fill="#284858"/><polygon points="35.67,90.57 241.15,165.33 241.14,164.99" fill="#697174"/><polygon points="256.01,133.58 256.17,133.63 256.32,133.38" fill="#284858"/><polygon points="284.87,128.38 284.96,128.27 284.84,128.05" fill="#5f6669"/><polygon points="284.68,127.85 284.56,127.92 284.84,128.05" fill="#697274"/><polygon points="284.87,128.38 284.91,128.75 284.96,128.27" fill="#5d6567"/><polygon points="256.39,133.15 256.32,133.38 256.73,133.21" fill="#294959"/><polygon points="284.21,127.73 284.56,127.92 284.68,127.85" fill="#6f787b"/><polygon points="256.17,133.63 256.06,133.99 256.48,133.73" fill="#264554"/><polygon points="284.75,128.13 284.87,128.38 284.84,128.05" fill="#61696b"/><polygon points="284.56,127.92 284.75,128.13 284.84,128.05" fill="#697174"/><polygon points="256.32,133.38 256.17,133.63 256.59,133.45" fill="#284857"/><polygon points="256.06,133.99 256.39,134.15 256.48,133.73" fill="#264554"/><polygon points="256.32,133.38 256.59,133.45 256.73,133.21" fill="#294959"/><polygon points="256.17,133.63 256.48,133.73 256.59,133.45" fill="#284858"/><polygon points="227.58,94.53 223.61,116.99 254.75,102.03" fill="#192127"/><polygon points="255.22,124.34 255.35,124.23 259.83,101.34" fill="#13191e"/><polygon points="263.06,135.39 263.11,135.80 265.95,133.34" fill="#1d3642"/><polygon points="262.35,134.67 262.72,134.89 265.61,132.84" fill="#264453"/><polygon points="262.93,135.12 263.06,135.39 265.82,133.07" fill="#203a48"/><polygon points="262.72,134.89 262.93,135.12 265.82,133.07" fill="#233f4d"/><polygon points="256.94,132.97 256.73,133.21 262.35,134.67" fill="#284757"/><polygon points="223.76,117.86 250.40,126.08 250.30,125.92" fill="#13191e"/><polygon points="35.58,90.29 241.14,164.99 241.62,159.60" fill="#6f787a"/><polygon points="254.48,125.13 254.78,125.01 251.40,126.03" fill="#13191e"/><polygon points="256.73,133.21 256.59,133.45 262.13,134.91" fill="#284858"/><polygon points="251.40,126.03 254.78,125.01 255.02,124.79" fill="#13191e"/><polygon points="256.48,133.73 256.39,134.15 261.88,135.44" fill="#264453"/><polygon points="256.59,133.45 256.48,133.73 261.99,135.15" fill="#284757"/><polygon points="223.65,117.70 250.30,125.92 250.25,125.67" fill="#151b20"/><polygon points="251.64,125.80 255.02,124.79 255.22,124.34" fill="#13191e"/><polygon points="223.59,117.45 250.25,125.67 250.29,125.20" fill="#181f25"/><polygon points="228.34,93.33 228.07,93.49 255.51,100.78" fill="#1a2228"/><polygon points="256.73,133.21 262.13,134.91 262.35,134.67" fill="#284757"/><polygon points="256.59,133.45 261.99,135.15 262.13,134.91" fill="#284858"/><polygon points="256.39,134.15 261.79,135.86 261.88,135.44" fill="#264453"/><polygon points="256.48,133.73 261.88,135.44 261.99,135.15" fill="#284757"/><polygon points="228.07,93.49 227.88,93.73 255.25,100.96" fill="#1b2329"/><polygon points="227.88,93.73 227.73,94.03 255.06,101.20" fill="#1c2329"/><polygon points="227.73,94.03 227.58,94.53 254.91,101.51" fill="#1b2228"/><polygon points="262.82,135.92 263.11,135.80 263.06,135.39" fill="#1d3642"/><polygon points="35.41,85.38 241.96,158.64 242.19,158.39" fill="#788285"/><polygon points="262.35,134.67 262.13,134.91 262.72,134.89" fill="#274555"/><polygon points="262.80,135.53 263.06,135.39 262.93,135.12" fill="#213d4a"/><polygon points="262.72,134.89 262.49,135.07 262.93,135.12" fill="#244150"/><polygon points="35.16,86.08 241.62,159.60 241.71,159.18" fill="#737d7f"/><polygon points="262.80,135.53 262.82,135.92 263.06,135.39" fill="#1d3642"/><polygon points="35.27,85.55 241.82,158.89 241.96,158.64" fill="#7a8487"/><polygon points="166.42,115.01 194.28,124.21 211.98,114.21" fill="#355146"/><polygon points="262.13,134.91 262.49,135.07 262.72,134.89" fill="#274655"/><polygon points="35.19,85.76 241.71,159.18 241.82,158.89" fill="#788285"/><polygon points="262.73,135.25 262.80,135.53 262.93,135.12" fill="#203b49"/><polygon points="262.49,135.07 262.73,135.25 262.93,135.12" fill="#244250"/><polygon points="259.71,101.42 255.22,124.34 259.83,101.34" fill="#13191e"/><polygon points="262.53,135.95 262.82,135.92 262.80,135.53" fill="#203b48"/><polygon points="262.13,134.91 261.99,135.15 262.49,135.07" fill="#284756"/><polygon points="262.55,135.64 262.80,135.53 262.73,135.25" fill="#23404f"/><polygon points="262.55,135.64 262.53,135.95 262.80,135.53" fill="#1f3946"/><polygon points="262.49,135.07 262.29,135.27 262.73,135.25" fill="#254352"/><polygon points="261.99,135.15 262.29,135.27 262.49,135.07" fill="#284757"/><polygon points="262.22,135.94 262.53,135.95 262.55,135.64" fill="#223e4c"/><polygon points="262.54,135.38 262.55,135.64 262.73,135.25" fill="#223d4b"/><polygon points="261.79,135.86 262.22,135.94 262.26,135.56" fill="#254251"/><polygon points="262.29,135.27 262.54,135.38 262.73,135.25" fill="#264453"/><polygon points="261.88,135.44 261.79,135.86 262.26,135.56" fill="#254351"/><polygon points="261.99,135.15 261.88,135.44 262.29,135.27" fill="#274656"/><polygon points="262.26,135.56 262.22,135.94 262.55,135.64" fill="#233f4d"/><polygon points="261.88,135.44 262.26,135.56 262.29,135.27" fill="#274655"/><polygon points="262.26,135.56 262.55,135.64 262.54,135.38" fill="#244250"/><polygon points="262.29,135.27 262.26,135.56 262.54,135.38" fill="#254352"/><polygon points="251.09,126.15 254.48,125.13 251.40,126.03" fill="#13191e"/><polygon points="227.31,99.75 226.22,114.81 249.53,106.04" fill="#247078"/><polygon points="251.84,125.35 255.22,124.34 259.71,101.42" fill="#13191e"/><polygon points="251.64,125.80 251.40,126.03 255.02,124.79" fill="#13191e"/><polygon points="223.61,116.99 250.29,125.20 254.75,102.03" fill="#192127"/><polygon points="251.84,125.35 251.64,125.80 255.22,124.34" fill="#13191e"/><polygon points="228.34,93.33 255.51,100.78 258.89,100.03" fill="#192126"/><polygon points="166.42,115.01 166.38,117.82 194.28,124.21" fill="#324c42"/><polygon points="259.11,100.09 258.89,100.03 259.49,100.30" fill="#171e23"/><polygon points="259.71,101.42 259.83,101.34 259.82,100.87" fill="#13191e"/><polygon points="259.49,100.30 259.33,100.27 259.68,100.55" fill="#151c21"/><polygon points="258.89,100.03 259.33,100.27 259.49,100.30" fill="#171e23"/><polygon points="259.69,100.89 259.82,100.87 259.68,100.55" fill="#13191e"/><polygon points="259.33,100.27 259.56,100.55 259.68,100.55" fill="#151c21"/><polygon points="259.69,100.89 259.71,101.42 259.82,100.87" fill="#13191e"/><polygon points="259.56,100.55 259.69,100.89 259.68,100.55" fill="#13191e"/><polygon points="227.93,99.41 227.31,99.75 250.14,105.68" fill="#27777f"/><polygon points="226.22,114.81 248.10,121.46 249.53,106.04" fill="#247078"/><polygon points="250.62,126.13 251.09,126.15 250.85,126.12" fill="#13191e"/><polygon points="250.40,126.08 250.62,126.13 250.85,126.12" fill="#13191e"/><polygon points="251.09,126.15 251.40,126.03 251.18,126.03" fill="#13191e"/><polygon points="250.85,126.12 251.09,126.15 251.18,126.03" fill="#13191e"/><polygon points="251.18,126.03 251.40,126.03 251.64,125.80" fill="#13191e"/><polygon points="250.40,126.08 250.85,126.12 250.66,125.98" fill="#13191e"/><polygon points="250.30,125.92 250.40,126.08 250.66,125.98" fill="#13191e"/><polygon points="251.35,125.80 251.18,126.03 251.64,125.80" fill="#13191e"/><polygon points="251.35,125.80 251.64,125.80 251.84,125.35" fill="#13191e"/><polygon points="250.85,126.12 251.18,126.03 250.98,125.94" fill="#13191e"/><polygon points="250.66,125.98 250.85,126.12 250.98,125.94" fill="#13191e"/><polygon points="250.98,125.94 251.18,126.03 251.35,125.80" fill="#13191e"/><polygon points="251.50,125.39 251.35,125.80 251.84,125.35" fill="#13191e"/><polygon points="250.30,125.92 250.66,125.98 250.71,125.74" fill="#151b20"/><polygon points="250.25,125.67 250.30,125.92 250.71,125.74" fill="#141a1f"/><polygon points="250.66,125.98 250.98,125.94 251.07,125.72" fill="#141a1f"/><polygon points="251.07,125.72 250.98,125.94 251.35,125.80" fill="#13191e"/><polygon points="250.71,125.74 250.66,125.98 251.07,125.72" fill="#13191e"/><polygon points="251.07,125.72 251.35,125.80 251.50,125.39" fill="#13191e"/><polygon points="250.25,125.67 250.71,125.74 250.80,125.32" fill="#171f24"/><polygon points="251.16,125.37 251.07,125.72 251.50,125.39" fill="#13191e"/><polygon points="250.71,125.74 251.07,125.72 251.16,125.37" fill="#161d22"/><polygon points="250.29,125.20 250.25,125.67 250.80,125.32" fill="#171e24"/><polygon points="250.80,125.32 250.71,125.74 251.16,125.37" fill="#151c21"/><polygon points="228.07,93.49 255.25,100.96 255.51,100.78" fill="#1a2228"/><polygon points="258.89,100.03 255.51,100.78 259.33,100.27" fill="#182025"/><polygon points="259.33,100.27 255.95,101.03 259.56,100.55" fill="#161d22"/><polygon points="227.88,93.73 255.06,101.20 255.25,100.96" fill="#1b2329"/><polygon points="256.33,102.19 259.71,101.42 259.69,100.89" fill="#13191e"/><polygon points="256.32,101.66 259.69,100.89 259.56,100.55" fill="#141b20"/><polygon points="227.73,94.03 254.91,101.51 255.06,101.20" fill="#1c2329"/><polygon points="227.58,94.53 254.75,102.03 254.91,101.51" fill="#1b2228"/><polygon points="256.33,102.19 251.84,125.35 259.71,101.42" fill="#13191e"/><polygon points="251.50,125.39 251.84,125.35 256.33,102.19" fill="#13191e"/><polygon points="248.10,121.46 248.70,121.07 250.14,105.68" fill="#1d5e65"/><polygon points="251.16,125.37 251.50,125.39 255.98,102.21" fill="#141b20"/><polygon points="250.80,125.32 251.16,125.37 255.64,102.19" fill="#171e23"/><polygon points="250.29,125.20 250.80,125.32 255.27,102.14" fill="#192026"/><polygon points="194.28,124.21 194.15,127.10 211.98,114.21" fill="#293f37"/><polygon points="228.97,199.92 228.87,200.00 260.66,174.17" fill="#5d6567"/><polygon points="229.04,199.73 228.97,199.92 260.73,173.99" fill="#5d6567"/><polygon points="227.31,99.75 249.53,106.04 250.14,105.68" fill="#27777f"/><polygon points="255.51,100.78 255.95,101.03 259.33,100.27" fill="#182025"/><polygon points="255.95,101.03 256.18,101.31 259.56,100.55" fill="#161d22"/><polygon points="256.18,101.31 256.32,101.66 259.56,100.55" fill="#141b20"/><polygon points="256.32,101.66 256.33,102.19 259.69,100.89" fill="#13191e"/><polygon points="255.98,102.21 251.50,125.39 256.33,102.19" fill="#13191e"/><polygon points="255.64,102.19 251.16,125.37 255.98,102.21" fill="#141b20"/><polygon points="254.75,102.03 250.29,125.20 255.27,102.14" fill="#192026"/><polygon points="166.38,117.82 194.15,127.10 194.28,124.21" fill="#324c42"/><polygon points="255.27,102.14 250.80,125.32 255.64,102.19" fill="#171e23"/><polygon points="229.27,196.80 229.04,199.73 261.03,171.23" fill="#5d6567"/><polygon points="222.78,208.23 215.79,213.97 233.87,213.00" fill="#141517"/><polygon points="229.70,215.83 229.85,215.59 229.96,215.27" fill="#1d3642"/><polygon points="249.53,106.04 248.10,121.46 250.14,105.68" fill="#1d5e65"/><polygon points="229.82,215.51 229.70,215.83 229.96,215.27" fill="#1d3642"/><polygon points="229.24,196.57 229.27,196.80 261.01,171.02" fill="#5d6567"/><polygon points="228.84,196.14 229.04,196.28 260.82,170.75" fill="#737c7f"/><polygon points="229.16,196.41 229.24,196.57 260.93,170.87" fill="#646c6f"/><polygon points="229.04,196.28 229.16,196.41 260.93,170.87" fill="#6c7577"/><polygon points="255.51,100.78 255.25,100.96 255.95,101.03" fill="#1a2127"/><polygon points="255.95,101.03 255.67,101.15 256.18,101.31" fill="#181f24"/><polygon points="255.25,100.96 255.67,101.15 255.95,101.03" fill="#1a2127"/><polygon points="255.98,102.21 256.33,102.19 256.32,101.66" fill="#13191e"/><polygon points="256.01,101.73 256.32,101.66 256.18,101.31" fill="#161c21"/><polygon points="255.67,101.15 255.95,101.39 256.18,101.31" fill="#181f24"/><polygon points="255.95,101.39 256.01,101.73 256.18,101.31" fill="#151c21"/><polygon points="256.01,101.73 255.98,102.21 256.32,101.66" fill="#13191e"/><polygon points="255.25,100.96 255.06,101.20 255.67,101.15" fill="#1b2328"/><polygon points="255.67,101.15 255.42,101.33 255.95,101.39" fill="#192026"/><polygon points="255.06,101.20 255.42,101.33 255.67,101.15" fill="#1b2328"/><polygon points="255.70,101.80 256.01,101.73 255.95,101.39" fill="#181f25"/><polygon points="255.42,101.33 255.71,101.49 255.95,101.39" fill="#192126"/><polygon points="255.64,102.19 255.98,102.21 256.01,101.73" fill="#161c22"/><polygon points="255.06,101.20 254.91,101.51 255.42,101.33" fill="#1b2329"/><polygon points="255.71,101.49 255.70,101.80 255.95,101.39" fill="#161d23"/><polygon points="255.70,101.80 255.64,102.19 256.01,101.73" fill="#151c21"/><polygon points="255.42,101.33 255.36,101.66 255.71,101.49" fill="#1a2127"/><polygon points="254.91,101.51 255.36,101.66 255.42,101.33" fill="#1b2328"/><polygon points="254.91,101.51 254.75,102.03 255.36,101.66" fill="#1a2127"/><polygon points="255.36,101.66 255.70,101.80 255.71,101.49" fill="#192026"/><polygon points="255.27,102.14 255.64,102.19 255.70,101.80" fill="#181f24"/><polygon points="254.75,102.03 255.27,102.14 255.36,101.66" fill="#1a2127"/><polygon points="255.36,101.66 255.27,102.14 255.70,101.80" fill="#181f25"/><polygon points="226.42,218.64 229.70,215.83 229.82,215.51" fill="#1d3642"/><polygon points="219.59,216.11 219.74,216.31 219.62,216.14" fill="#1e3845"/><polygon points="219.49,215.92 219.59,216.11 219.62,216.14" fill="#203a47"/><polygon points="226.75,221.64 233.64,215.69 233.87,213.00" fill="#0d0f10"/><polygon points="219.74,216.31 219.99,216.49 219.91,216.36" fill="#1d3743"/><polygon points="219.62,216.14 219.74,216.31 219.91,216.36" fill="#1e3845"/><polygon points="219.49,215.92 219.62,216.14 219.57,215.84" fill="#233f4e"/><polygon points="219.45,215.66 219.49,215.92 219.57,215.84" fill="#23404e"/><polygon points="219.62,216.14 219.91,216.36 219.88,216.05" fill="#223e4d"/><polygon points="219.57,215.84 219.62,216.14 219.88,216.05" fill="#233f4d"/><polygon points="219.91,216.36 219.99,216.49 225.20,218.70" fill="#1d3642"/><polygon points="226.54,218.31 226.42,218.64 229.82,215.51" fill="#1d3642"/><polygon points="219.88,216.05 219.91,216.36 225.17,218.39" fill="#223d4b"/><polygon points="219.99,216.49 225.28,218.83 225.20,218.70" fill="#1d3642"/><polygon points="219.91,216.36 225.20,218.70 225.17,218.39" fill="#223d4b"/><polygon points="226.04,218.88 226.24,218.78 226.42,218.64" fill="#1d3642"/><polygon points="225.28,218.83 225.40,218.87 225.58,218.90" fill="#1d3642"/><polygon points="225.77,218.94 226.04,218.88 225.84,218.88" fill="#1d3642"/><polygon points="225.58,218.90 225.77,218.94 225.84,218.88" fill="#1d3642"/><polygon points="226.14,218.76 226.04,218.88 226.42,218.64" fill="#1d3642"/><polygon points="215.79,213.97 226.97,218.92 233.87,213.00" fill="#141517"/><polygon points="225.84,218.88 226.04,218.88 226.14,218.76" fill="#1d3642"/><polygon points="225.28,218.83 225.58,218.90 225.59,218.79" fill="#1d3642"/><polygon points="226.14,218.76 226.42,218.64 226.54,218.31" fill="#1d3642"/><polygon points="225.20,218.70 225.28,218.83 225.59,218.79" fill="#1d3642"/><polygon points="225.58,218.90 225.84,218.88 225.89,218.76" fill="#1d3642"/><polygon points="225.89,218.76 225.84,218.88 226.14,218.76" fill="#1d3642"/><polygon points="225.59,218.79 225.58,218.90 225.89,218.76" fill="#1d3642"/><polygon points="226.21,218.47 226.14,218.76 226.54,218.31" fill="#1d3642"/><polygon points="225.89,218.76 226.14,218.76 226.21,218.47" fill="#1d3642"/><polygon points="225.20,218.70 225.59,218.79 225.60,218.51" fill="#213c4a"/><polygon points="225.59,218.79 225.89,218.76 225.92,218.52" fill="#1f3946"/><polygon points="225.17,218.39 225.20,218.70 225.60,218.51" fill="#213c49"/><polygon points="225.92,218.52 225.89,218.76 226.21,218.47" fill="#1d3642"/><polygon points="225.60,218.51 225.59,218.79 225.92,218.52" fill="#1e3845"/><polygon points="215.79,213.97 215.61,216.67 226.97,218.92" fill="#121415"/><polygon points="226.97,218.92 226.75,221.64 233.87,213.00" fill="#0d0f10"/><polygon points="215.61,216.67 226.75,221.64 226.97,218.92" fill="#121415"/><polygon points="242.18,165.43 283.98,134.14 284.15,133.99" fill="#5d6567"/><polygon points="242.36,165.27 284.15,133.99 284.28,133.67" fill="#5d6567"/><polygon points="242.48,164.92 284.28,133.67 284.91,128.75" fill="#5d6567"/><polygon points="242.97,159.54 284.91,128.75 284.87,128.38" fill="#5d6567"/><polygon points="284.21,127.73 242.19,158.39 284.56,127.92" fill="#737c7f"/><polygon points="242.92,159.13 284.87,128.38 284.75,128.13" fill="#646c6f"/><polygon points="284.56,127.92 242.57,158.61 284.75,128.13" fill="#6c7577"/><polygon points="229.82,215.51 229.96,215.27 234.91,155.69" fill="#1d3642"/><polygon points="226.54,218.31 229.82,215.51 234.77,155.89" fill="#1d3642"/><polygon points="219.43,215.47 219.45,215.66 223.78,156.02" fill="#244250"/><polygon points="219.45,215.66 219.57,215.84 223.90,156.17" fill="#254351"/><polygon points="219.57,215.84 219.88,216.05 224.24,156.36" fill="#254251"/><polygon points="228.40,200.05 228.61,200.09 228.50,200.07" fill="#5d6567"/><polygon points="228.76,200.05 228.87,200.00 228.97,199.92" fill="#5d6567"/><polygon points="228.33,200.03 228.40,200.05 228.50,200.07" fill="#5d6567"/><polygon points="228.61,200.09 228.76,200.05 228.65,200.05" fill="#5d6567"/><polygon points="228.50,200.07 228.61,200.09 228.65,200.05" fill="#5d6567"/><polygon points="228.81,199.98 228.76,200.05 228.97,199.92" fill="#5d6567"/><polygon points="228.65,200.05 228.76,200.05 228.81,199.98" fill="#5d6567"/><polygon points="228.33,200.03 228.50,200.07 228.50,200.00" fill="#5d6567"/><polygon points="228.81,199.98 228.97,199.92 229.04,199.73" fill="#5d6567"/><polygon points="228.29,199.95 228.33,200.03 228.50,200.00" fill="#5d6567"/><polygon points="228.50,200.07 228.65,200.05 228.67,199.98" fill="#5d6567"/><polygon points="228.67,199.98 228.65,200.05 228.81,199.98" fill="#5d6567"/><polygon points="228.50,200.00 228.50,200.07 228.67,199.98" fill="#5d6567"/><polygon points="228.86,199.82 228.81,199.98 229.04,199.73" fill="#5d6567"/><polygon points="228.67,199.98 228.81,199.98 228.86,199.82" fill="#5d6567"/><polygon points="228.29,199.95 228.50,200.00 228.51,199.83" fill="#677072"/><polygon points="228.50,200.00 228.67,199.98 228.69,199.84" fill="#626b6d"/><polygon points="228.27,199.77 228.29,199.95 228.51,199.83" fill="#666f71"/><polygon points="228.69,199.84 228.67,199.98 228.86,199.82" fill="#5d6567"/><polygon points="228.51,199.83 228.50,200.00 228.69,199.84" fill="#60686b"/><polygon points="228.86,199.82 229.04,199.73 229.27,196.80" fill="#5d6567"/><polygon points="228.69,199.84 228.86,199.82 229.09,196.88" fill="#5f676a"/><polygon points="228.27,199.77 228.51,199.83 228.75,196.90" fill="#6c7578"/><polygon points="228.51,199.83 228.69,199.84 228.93,196.91" fill="#666e71"/><polygon points="219.88,216.05 225.17,218.39 229.88,158.39" fill="#244150"/><polygon points="229.09,196.88 228.86,199.82 229.27,196.80" fill="#5d6567"/><polygon points="228.51,196.84 228.27,199.77 228.75,196.90" fill="#6c7578"/><polygon points="228.93,196.91 228.69,199.84 229.09,196.88" fill="#5f676a"/><polygon points="228.75,196.90 228.51,199.83 228.93,196.91" fill="#666e71"/><polygon points="226.21,218.47 226.54,218.31 231.33,158.32" fill="#1d3642"/><polygon points="225.92,218.52 226.21,218.47 230.99,158.46" fill="#1e3744"/><polygon points="225.17,218.39 225.60,218.51 230.34,158.49" fill="#233f4e"/><polygon points="225.60,218.51 225.92,218.52 230.68,158.50" fill="#203b49"/><polygon points="229.09,196.88 229.27,196.80 229.24,196.57" fill="#5d6567"/><polygon points="228.84,196.14 228.70,196.29 229.04,196.28" fill="#757f82"/><polygon points="229.08,196.67 229.24,196.57 229.16,196.41" fill="#677072"/><polygon points="229.08,196.67 229.09,196.88 229.24,196.57" fill="#5d6567"/><polygon points="229.04,196.28 228.90,196.40 229.16,196.41" fill="#6f787b"/><polygon points="228.93,196.91 229.09,196.88 229.08,196.67" fill="#656d6f"/><polygon points="228.70,196.29 228.90,196.40 229.04,196.28" fill="#767f82"/><polygon points="229.04,196.50 229.08,196.67 229.16,196.41" fill="#656e70"/><polygon points="228.90,196.40 229.04,196.50 229.16,196.41" fill="#6f787b"/><polygon points="228.51,196.84 228.75,196.90 228.77,196.68" fill="#707a7c"/><polygon points="228.75,196.90 228.93,196.91 228.93,196.73" fill="#6a7275"/><polygon points="228.93,196.73 228.93,196.91 229.08,196.67" fill="#626b6d"/><polygon points="228.56,196.61 228.51,196.84 228.77,196.68" fill="#717a7d"/><polygon points="228.70,196.29 228.62,196.44 228.90,196.40" fill="#778184"/><polygon points="228.93,196.73 229.08,196.67 229.04,196.50" fill="#6d7679"/><polygon points="228.77,196.68 228.75,196.90 228.93,196.73" fill="#6b7477"/><polygon points="228.90,196.40 228.79,196.52 229.04,196.50" fill="#717a7d"/><polygon points="228.62,196.44 228.56,196.61 228.79,196.52" fill="#778083"/><polygon points="228.93,196.58 228.93,196.73 229.04,196.50" fill="#697174"/><polygon points="228.62,196.44 228.79,196.52 228.90,196.40" fill="#788285"/><polygon points="228.79,196.52 228.93,196.58 229.04,196.50" fill="#737d7f"/><polygon points="228.56,196.61 228.77,196.68 228.79,196.52" fill="#767f82"/><polygon points="228.77,196.68 228.93,196.73 228.93,196.58" fill="#6f787b"/><polygon points="228.79,196.52 228.77,196.68 228.93,196.58" fill="#727b7e"/><polygon points="234.77,155.89 229.82,215.51 234.91,155.69" fill="#1d3642"/><polygon points="223.75,155.86 219.43,215.47 223.78,156.02" fill="#244250"/><polygon points="223.78,156.02 219.45,215.66 223.90,156.17" fill="#254351"/><polygon points="223.90,156.17 219.57,215.84 224.24,156.36" fill="#254251"/><polygon points="231.33,158.32 226.54,218.31 234.77,155.89" fill="#1d3642"/><polygon points="224.24,156.36 219.88,216.05 229.88,158.39" fill="#244150"/><polygon points="230.99,158.46 226.21,218.47 231.33,158.32" fill="#1d3642"/><polygon points="229.88,158.39 225.17,218.39 230.34,158.49" fill="#233f4e"/><polygon points="230.68,158.50 225.92,218.52 230.99,158.46" fill="#1e3744"/><polygon points="230.34,158.49 225.60,218.51 230.68,158.50" fill="#203b49"/><polygon points="242.36,165.27 242.18,165.43 284.15,133.99" fill="#5d6567"/><polygon points="242.48,164.92 242.36,165.27 284.28,133.67" fill="#5d6567"/><polygon points="227.90,152.65 227.68,152.72 228.17,152.57" fill="#264453"/><polygon points="242.97,159.54 242.48,164.92 284.91,128.75" fill="#5d6567"/><polygon points="228.17,152.57 227.92,152.64 228.56,152.61" fill="#264453"/><polygon points="227.92,152.64 228.32,152.68 228.56,152.61" fill="#264453"/><polygon points="242.92,159.13 242.97,159.54 284.87,128.38" fill="#5d6567"/><polygon points="242.19,158.39 242.57,158.61 284.56,127.92" fill="#737c7f"/><polygon points="242.78,158.85 242.92,159.13 284.75,128.13" fill="#646c6f"/><polygon points="242.57,158.61 242.78,158.85 284.75,128.13" fill="#6c7577"/><polygon points="228.56,152.61 228.32,152.68 234.18,154.59" fill="#254352"/><polygon points="227.68,152.72 224.21,155.11 227.92,152.64" fill="#274655"/><polygon points="227.92,152.64 224.46,155.02 228.32,152.68" fill="#274656"/><polygon points="228.32,152.68 233.95,154.67 234.18,154.59" fill="#254352"/><polygon points="234.31,154.66 234.18,154.59 234.58,154.82" fill="#203b49"/><polygon points="234.85,155.31 234.91,155.69 234.85,155.23" fill="#1d3642"/><polygon points="234.85,155.31 234.85,155.23 234.74,155.01" fill="#1d3642"/><polygon points="234.58,154.82 234.52,154.81 234.74,155.01" fill="#1e3845"/><polygon points="234.18,154.59 234.52,154.81 234.58,154.82" fill="#213c4a"/><polygon points="234.70,155.05 234.85,155.31 234.74,155.01" fill="#1d3642"/><polygon points="234.52,154.81 234.70,155.05 234.74,155.01" fill="#1f3946"/><polygon points="234.77,155.89 234.91,155.69 234.85,155.31" fill="#1d3642"/><polygon points="234.18,154.59 233.95,154.67 234.52,154.81" fill="#244150"/><polygon points="228.32,152.68 224.86,155.07 233.95,154.67" fill="#274555"/><polygon points="234.71,155.45 234.85,155.31 234.70,155.05" fill="#1e3744"/><polygon points="234.52,154.81 234.34,154.90 234.70,155.05" fill="#223d4b"/><polygon points="234.71,155.45 234.77,155.89 234.85,155.31" fill="#1d3642"/><polygon points="233.95,154.67 234.34,154.90 234.52,154.81" fill="#244150"/><polygon points="234.56,155.15 234.71,155.45 234.70,155.05" fill="#1e3845"/><polygon points="234.34,154.90 234.56,155.15 234.70,155.05" fill="#223d4b"/><polygon points="224.21,155.11 224.46,155.02 227.92,152.64" fill="#274655"/><polygon points="224.46,155.02 224.86,155.07 228.32,152.68" fill="#274656"/><polygon points="231.33,158.32 234.77,155.89 234.71,155.45" fill="#1d3642"/><polygon points="233.95,154.67 230.51,157.09 234.34,154.90" fill="#264453"/><polygon points="224.21,155.11 224.03,155.28 224.06,155.28" fill="#274555"/><polygon points="224.03,155.28 223.87,155.50 224.06,155.28" fill="#274555"/><polygon points="231.27,157.88 234.71,155.45 234.56,155.15" fill="#203a48"/><polygon points="234.34,154.90 230.90,157.33 234.56,155.15" fill="#233f4d"/><polygon points="223.87,155.50 223.75,155.86 223.86,155.71" fill="#264453"/><polygon points="224.21,155.11 224.06,155.28 224.46,155.02" fill="#284757"/><polygon points="223.75,155.86 223.78,156.02 223.86,155.71" fill="#264453"/><polygon points="224.06,155.28 223.87,155.50 224.00,155.49" fill="#284757"/><polygon points="223.87,155.50 223.86,155.71 224.00,155.49" fill="#284756"/><polygon points="224.06,155.28 224.26,155.26 224.46,155.02" fill="#284857"/><polygon points="224.46,155.02 224.26,155.26 224.86,155.07" fill="#284857"/><polygon points="223.86,155.71 223.78,156.02 224.01,155.79" fill="#264554"/><polygon points="224.06,155.28 224.00,155.49 224.26,155.26" fill="#294858"/><polygon points="223.78,156.02 223.90,156.17 224.01,155.79" fill="#274554"/><polygon points="224.00,155.49 223.86,155.71 224.17,155.52" fill="#284857"/><polygon points="224.00,155.49 224.17,155.52 224.26,155.26" fill="#294959"/><polygon points="223.86,155.71 224.01,155.79 224.17,155.52" fill="#284858"/><polygon points="224.26,155.26 224.60,155.33 224.86,155.07" fill="#284858"/><polygon points="224.26,155.26 224.17,155.52 224.60,155.33" fill="#294959"/><polygon points="224.01,155.79 223.90,156.17 224.33,155.91" fill="#264554"/><polygon points="224.86,155.07 230.51,157.09 233.95,154.67" fill="#274555"/><polygon points="223.90,156.17 224.24,156.36 224.33,155.91" fill="#264554"/><polygon points="224.17,155.52 224.01,155.79 224.45,155.60" fill="#284857"/><polygon points="224.17,155.52 224.45,155.60 224.60,155.33" fill="#294959"/><polygon points="224.01,155.79 224.33,155.91 224.45,155.60" fill="#284858"/><polygon points="224.86,155.07 224.60,155.33 230.51,157.09" fill="#284757"/><polygon points="231.27,157.88 231.33,158.32 234.71,155.45" fill="#1d3642"/><polygon points="230.51,157.09 230.90,157.33 234.34,154.90" fill="#264453"/><polygon points="224.60,155.33 224.45,155.60 230.25,157.36" fill="#284858"/><polygon points="231.12,157.58 231.27,157.88 234.56,155.15" fill="#203a48"/><polygon points="230.90,157.33 231.12,157.58 234.56,155.15" fill="#233f4d"/><polygon points="224.33,155.91 224.24,156.36 229.97,157.94" fill="#264453"/><polygon points="224.45,155.60 224.33,155.91 230.10,157.63" fill="#284757"/><polygon points="224.60,155.33 230.25,157.36 230.51,157.09" fill="#284757"/><polygon points="224.24,156.36 229.88,158.39 229.97,157.94" fill="#264453"/><polygon points="224.45,155.60 230.10,157.63 230.25,157.36" fill="#284858"/><polygon points="224.33,155.91 229.97,157.94 230.10,157.63" fill="#284757"/><polygon points="230.99,158.46 231.33,158.32 231.27,157.88" fill="#1d3642"/><polygon points="230.51,157.09 230.25,157.36 230.90,157.33" fill="#274555"/><polygon points="230.97,158.05 231.27,157.88 231.12,157.58" fill="#213d4a"/><polygon points="230.90,157.33 230.64,157.54 231.12,157.58" fill="#244150"/><polygon points="230.97,158.05 230.99,158.46 231.27,157.88" fill="#1d3642"/><polygon points="230.25,157.36 230.64,157.54 230.90,157.33" fill="#274655"/><polygon points="230.90,157.74 230.97,158.05 231.12,157.58" fill="#203b49"/><polygon points="230.64,157.54 230.90,157.74 231.12,157.58" fill="#244250"/><polygon points="230.68,158.50 230.99,158.46 230.97,158.05" fill="#203b48"/><polygon points="230.25,157.36 230.10,157.63 230.64,157.54" fill="#284756"/><polygon points="229.88,158.39 230.34,158.49 230.38,158.08" fill="#254251"/><polygon points="230.69,158.17 230.68,158.50 230.97,158.05" fill="#1f3946"/><polygon points="229.97,157.94 229.88,158.39 230.38,158.08" fill="#254351"/><polygon points="230.69,158.17 230.97,158.05 230.90,157.74" fill="#23404f"/><polygon points="230.34,158.49 230.68,158.50 230.69,158.17" fill="#223e4c"/><polygon points="230.64,157.54 230.42,157.76 230.90,157.74" fill="#254352"/><polygon points="230.10,157.63 230.42,157.76 230.64,157.54" fill="#284757"/><polygon points="230.10,157.63 229.97,157.94 230.42,157.76" fill="#274656"/><polygon points="230.68,157.88 230.69,158.17 230.90,157.74" fill="#223d4b"/><polygon points="230.42,157.76 230.68,157.88 230.90,157.74" fill="#264453"/><polygon points="230.38,158.08 230.34,158.49 230.69,158.17" fill="#233f4d"/><polygon points="229.97,157.94 230.38,158.08 230.42,157.76" fill="#274655"/><polygon points="230.38,158.08 230.69,158.17 230.68,157.88" fill="#244250"/><polygon points="230.42,157.76 230.38,158.08 230.68,157.88" fill="#254352"/><polygon points="241.98,165.51 242.18,165.43 242.36,165.27" fill="#5d6567"/><polygon points="241.34,165.54 241.71,165.58 241.53,165.53" fill="#5d6567"/><polygon points="241.23,165.48 241.34,165.54 241.53,165.53" fill="#5d6567"/><polygon points="241.71,165.58 241.98,165.51 241.79,165.50" fill="#5d6567"/><polygon points="242.09,165.36 241.98,165.51 242.36,165.27" fill="#5d6567"/><polygon points="241.53,165.53 241.71,165.58 241.79,165.50" fill="#5d6567"/><polygon points="242.09,165.36 242.36,165.27 242.48,164.92" fill="#5d6567"/><polygon points="241.79,165.50 241.98,165.51 242.09,165.36" fill="#5d6567"/><polygon points="241.23,165.48 241.53,165.53 241.54,165.39" fill="#5d6567"/><polygon points="241.15,165.33 241.23,165.48 241.54,165.39" fill="#5d6567"/><polygon points="241.53,165.53 241.79,165.50 241.84,165.35" fill="#5d6567"/><polygon points="241.84,165.35 241.79,165.50 242.09,165.36" fill="#5d6567"/><polygon points="241.54,165.39 241.53,165.53 241.84,165.35" fill="#5d6567"/><polygon points="242.17,165.06 242.09,165.36 242.48,164.92" fill="#5d6567"/><polygon points="241.84,165.35 242.09,165.36 242.17,165.06" fill="#5d6567"/><polygon points="241.15,165.33 241.54,165.39 241.57,165.09" fill="#677072"/><polygon points="241.54,165.39 241.84,165.35 241.88,165.10" fill="#626b6d"/><polygon points="241.14,164.99 241.15,165.33 241.57,165.09" fill="#666f71"/><polygon points="241.88,165.10 241.84,165.35 242.17,165.06" fill="#5d6567"/><polygon points="241.57,165.09 241.54,165.39 241.88,165.10" fill="#60686b"/><polygon points="242.17,165.06 242.48,164.92 242.97,159.54" fill="#5d6567"/><polygon points="241.88,165.10 242.17,165.06 242.66,159.68" fill="#5f676a"/><polygon points="241.14,164.99 241.57,165.09 242.05,159.70" fill="#6c7578"/><polygon points="241.57,165.09 241.88,165.10 242.37,159.71" fill="#666e71"/><polygon points="242.66,159.68 242.17,165.06 242.97,159.54" fill="#5d6567"/><polygon points="242.37,159.71 241.88,165.10 242.66,159.68" fill="#5f676a"/><polygon points="241.62,159.60 241.14,164.99 242.05,159.70" fill="#6c7578"/><polygon points="242.05,159.70 241.57,165.09 242.37,159.71" fill="#666e71"/><polygon points="242.66,159.68 242.97,159.54 242.92,159.13" fill="#5d6567"/><polygon points="242.19,158.39 241.96,158.64 242.57,158.61" fill="#757f82"/><polygon points="242.64,159.29 242.92,159.13 242.78,158.85" fill="#677072"/><polygon points="242.57,158.61 242.33,158.82 242.78,158.85" fill="#6f787b"/><polygon points="242.64,159.29 242.66,159.68 242.92,159.13" fill="#5d6567"/><polygon points="241.96,158.64 242.33,158.82 242.57,158.61" fill="#767f82"/><polygon points="242.57,158.99 242.64,159.29 242.78,158.85" fill="#656e70"/><polygon points="242.33,158.82 242.57,158.99 242.78,158.85" fill="#6f787b"/><polygon points="242.37,159.71 242.66,159.68 242.64,159.29" fill="#656d6f"/><polygon points="241.96,158.64 241.82,158.89 242.33,158.82" fill="#778184"/><polygon points="242.38,159.40 242.37,159.71 242.64,159.29" fill="#626b6d"/><polygon points="242.38,159.40 242.64,159.29 242.57,158.99" fill="#6d7679"/><polygon points="241.62,159.60 242.05,159.70 242.09,159.31" fill="#707a7c"/><polygon points="242.05,159.70 242.37,159.71 242.38,159.40" fill="#6a7275"/><polygon points="241.71,159.18 241.62,159.60 242.09,159.31" fill="#717a7d"/><polygon points="242.33,158.82 242.12,159.01 242.57,158.99" fill="#717a7d"/><polygon points="241.82,158.89 242.12,159.01 242.33,158.82" fill="#788285"/><polygon points="242.37,159.13 242.38,159.40 242.57,158.99" fill="#697174"/><polygon points="241.82,158.89 241.71,159.18 242.12,159.01" fill="#778083"/><polygon points="242.12,159.01 242.37,159.13 242.57,158.99" fill="#737d7f"/><polygon points="242.09,159.31 242.05,159.70 242.38,159.40" fill="#6b7477"/><polygon points="241.71,159.18 242.09,159.31 242.12,159.01" fill="#767f82"/><polygon points="242.09,159.31 242.38,159.40 242.37,159.13" fill="#6f787b"/><polygon points="242.12,159.01 242.09,159.31 242.37,159.13" fill="#727b7e"/></svg>